<svg id="eJeuSM7HzRG1" xmlns="http://www.w3.org/2000/svg" xmlns:xlink="http://www.w3.org/1999/xlink" viewBox="0 0 1920 1080" shape-rendering="geometricPrecision" text-rendering="geometricPrecision" project-id="b3e0c5717757459693abef0a87c75337" export-id="6cd6ddf7e1ce44a296672230ce57588e" cached="false"><defs><filter id="eJeuSM7HzRG2-filter" x="-150%" y="-150%" width="400%" height="400%"><feColorMatrix id="eJeuSM7HzRG2-filter-grayscale-0" type="matrix" values="1 0 0 0 0 0 1 0 0 0 0 0 1 0 0 0 0 0 1 0" result="result"/><feComponentTransfer id="eJeuSM7HzRG2-filter-opacity-0" result="result"><feFuncA id="eJeuSM7HzRG2-filter-opacity-0-A" type="table" tableValues="0 1"/></feComponentTransfer><feColorMatrix id="eJeuSM7HzRG2-filter-sepia-0" type="matrix" values="1 0 0 0 0 0 1 0 0 0 0 0 1 0 0 0 0 0 1 0" result="result"/></filter></defs><g transform="matrix(12.545859 0 0 12.545859 410.978664 118.388974)" filter="url(#eJeuSM7HzRG2-filter)"><g><path d="M59.8,69.8l.1,1.2c0,0-.4.9-1.7,1-1.3,0-1.8.1-2.1,0s-.8-.2-1.1-.9v-1.1c-.1-.1,1.7,1.2,4.8-.2Z" fill="#d7c2a0"/><path d="M59.3,70.3c0,0-.6,1.2-1.3,1.2-.7-.1-1.9,0-1.9,0s-.6-.2-1-.6l.1-.5c0-.1,1.8,1,4.1-.1Z" fill="#f5e7cf"/><path d="M55.2,69.9c0,0-.1-.8,1.3-1.4s2.5-.1,2.9,1.3c0,0,.2.2-.7.4s-2.3.7-3.9-.2l.4-.1Z" fill="#f4e6c8"/><path d="M58.3,65.9c0,0,.3-.2.4.2s.5,1.5,1,3.6c0,0-.2.3-.3,0s-.2-.7-1.1-1.3c0,0-2.6-.7-3.1,1.4c0,0,.1.3-.3.1c0,0,.1-2.2.4-3.8c0,0,.1-.2.3.1.1.3.3.1.3-.2s.1-1,.7-1.1c.5,0,1.4-.2,1.6.6-.1.1-.2.7.1.4Z" fill="#31611d"/><path d="M58.3,66.7c0,0-.3,0-.4-.1s-1.2-.2-1.9.2c0,0-.3.2-.1-.3s1.7-.7,2.2-.2.2.4.2.4Z" fill="#eee8c4"/><path d="M58.2,66.9c0,0-1.6-.5-2.1,0s-.3.6-.3.6.5-.5.5-.3c0,0,.6-.4,1.7,0c.1,0,.5.3.2-.3Z" fill="#fffddd"/><path d="M56,67.7c0,0-.4.5-.1.6c0,0,.1-.2.2-.2s.4-.5,2.1-.1c0,0,.3.3.3-.1c0-.5-2.4-.6-2.5-.2Z" fill="#fffddd"/><path d="M58.5,64.7v1.2c0,0-.2.1-.3.2-.1,0-.2.1-.2-.4c0,0-.2-.5-.4-.5.2-.1,0-.5.9-.5Z" fill="#ff8428"/><path d="M55.4,66.1c0,0,.1,0,.2.1c0,.2.3.3.3-.2.1-.5.2-.9.3-.9s-.8-.1-.9-.1c0,.1.2.6.1,1.1Z" fill="#e7934a"/></g><g><path d="M50.5,65.9c0,0,.2-.3.4.2l.1,1c0,0,.1-.3.2,2c0,0-3,1-4,1.1v-.7c0,0-.4-1.8-2.2-1.7c0,0,.4-.5.6-.4s1,0,1.3.8c0,0,.5,0,.5-.4c0,0-.3-.6-.2-.7s.4.8.9.1c0,0-.3-.6-.1-.5s.2.3.2.3.3-.2.2-.6-.9-.7-.9-.7h-.3c0,0-.1-.5.2-1.1c0,0,.7-.5,1.5.5v1.1c0,0,.3-.1.7.3.1.1,1,.3.9-.6Z" fill="#376720"/><path d="M50.7,67c0,0-.9.2-.7,2.2l1.2-.3L51,67h-.3Z" fill="#1e4812"/><path d="M47.2,69.4c0,0,2,.4,2.6-2.3c0,0-.4-1-.5-.9l.4.3h1v.5c0,0-.9,1.1-.6,2.2l-2.9.8c0,.1.1-.4,0-.6Z" fill="#2d591b"/><path d="M48.5,66.4c0,0,.4.3-.2.6c0,0-.4-.8-1.6-.7c0,0,.1-.6.6-.5c0,0,.8-.2,1.2.6Z" fill="#f9eeca"/><path d="M48.1,67.2c0,0-.5-.8-1.7-.8c0,0-.7.7,0,.4c0,0,1.1.3,1.2.8c0,0,.7-.2.5-.4Z" fill="#f9eeca"/><path d="M45.5,67.3c0,0,1-.1,1.5.8c0,0,.6-.1.5-.4-.2-.3-.7-.9-1.8-.7c0,0-.7.3-.2.3Z" fill="#fbf1da"/><path d="M50.6,64.8c0,0,.1.5.1,1c0,.4-.5,1.2-1.1.9l-.6-.4v-1.1c0,0-.3-.3-.4-.4c0-.1,2,0,2,0Z" fill="#cd6a28"/><path d="M51.2,69v1c0,0-.2.6-.6.4c0,0-2.4.6-3.3.9-.9.2-3.2.3-3.7-.5c0,0-.3-.9,0-1.7s.9-1.4,1.3-1.4.1,0,.1,0s1.5-.4,2.2,1.7v.7c0,0,3.5-.9,4-1.1Z" fill="#d4bc95"/><path d="M43.8,69.9c0,0-.5.9,1.1,1.2s2.7,0,3.7-1c0,0-3.6.6-4.8-.2Z" fill="#f0dfc0"/><path d="M47.1,70c0,0-.4-2.1-2-2.2c0,0-1.7.8-.9,1.9c0,0,1.9.6,2.9.3Z" fill="#f3e4c5"/></g><g><path d="M47.1,61.8c0,0-.3.1-.3.3v2.2c0,0,.2.3.6.5s3.4.1,3.4.1.5,0,.7-.9v-1.9c0,.1-3.2,1-4.4-.3Z" fill="#406585"/><path d="M50.4,62.6v1.6c0,0-.9,1.4-3.5,0c0,0,.2-1.6.1-1.9c0,0,1.5.7,3.4.3Z" fill="#597a9a"/><path d="M59.1,62.1v2c0,0-.1.5-1.2.8c0,0-2.8.7-3.4-.3c0,0-.4-1.7,0-2.4c0,0,2,.8,4.1-.4.1,0,.3-.1.5.3Z" fill="#406585"/><path d="M58.3,62.3c0,0-2.3,1-3.7.2c0,0,.6,1.1.1,1.9c0,0,1.3.5,1.7.2c0,0,1.6.1,1.9-.4.1.1.2-1,0-1.9Z" fill="#597a9a"/><path d="M58.7,61.8L58,54c0,0-.6-9.8-.6-10.2s-5.8,1.4-9.6-.4c0,0-.7,14.7-.6,18.4c0,0,.4,1.3,4.2.4c0,0,.6-12.7,1-14.5c0,0,.3-.7.4.1s1.4,12.7,1.8,14.3s4.1.5,4.1-.3Z" fill="#0e304a"/><path d="M56.7,44.7c0,0-7,1.5-8.7-.6c0,0-.8,17.3-.6,17.6c0,0,2.4,1.1,2.9-.5s.3-5.9.3-5.9-.1-1,.2-1.5.3-6.1.3-6.1-.8-.7-.9-.9.5-.3.9-.2s1.8.4,1.8.7s1.7,14.5,2,14.3c0,0,1.4,1.6,2.8-1c0,0-.2-6.5-.4-6.5-.2.2-.6-9-.6-9.4Z" fill="#193a57"/><path d="M55.6,44.5c0,0,.5,1.5,1.4,1.2c0,0,0-.1,0-.4c0,0-.5.2-1-1-.1.1-.6,0-.4.2Z" fill="#001730"/><path d="M49.6,45.6c0,0-.5,1.5-1.4,1.2c0,0,0-.1,0-.4c0,0,.5.2,1-1c.1,0,.5-.1.4.2Z" fill="#001730"/></g><g><path d="M55.9,29.3c0,0-3.5,1.2-5,.7v1.2l-.7.5c0,0,.1.6,1,2.2h.1c.1.3,2-1.2,4.4-3.4c0,.1-.3-1.1.2-1.2Z" fill="#f38c3e"/><g><g><path d="M44.8,21.1c0,0,0-.5.4-.4c0,0-.1,2,1,2.6c0,0,.3-.2.7,1.1v-3.4c0,0-.1-.7.3-.9s1.8-.1,3.9-1.8c0,0,.1.5-.9,1.2c0,0-.5.6,1.9.1c0,0,2.7-.8,3.4-2.5c0,0,0,1.9,2.3,3.6c0,0,.4,2.8.2,3.6c0,0,.3.8.6-.3c0,0,.3-.5.3-.8s.4-.5,1-.1c0,0,1-1.8.7-3.8c0,0,0-.3.6.4c0,0,.2-1.3-.5-2.3c0,0-.6-1.1-1.2-1.3c0,0,.4-.2,1.1,0c0,0-.2-1.4-2.2-1.1c0,0,.6-1.8-.9-2.5c0,0-.4-.8-.2,1l.2.5c0,0-.7-2.4-3.4-2.6c0,0-.4.2.8,1.3c0,0-2.2-1.3-4.8-.4c0,0-1.2.6-2.8.2c0,0-.7.6,1.1,1.2c0,0-2.3.8-2.4,1.7c0,0-.2.1.3.3c0,0-.8,1.4-2.2,1.3c0,0-.6,1,1.1,1.2-.3.1-1.3,2.6-.4,2.9Z" fill="#341807"/><path d="M55.4,15.2c0,0-2.1-2.7-5.9-4.1c0,0-1.6-.4.9-.6c2.4-.1,5.4,2,5.9,4c0,.1-.1,1.6-.9.7Z" fill="#3b1c07"/><path d="M52.3,15.2c0,0-1.4-1.3-3.7-1.7c0,0-.9-.1.4-.4c1.4-.3,3.3.6,3.7,1.7c0,0,.1.9-.4.4Z" fill="#3b1c07"/><path d="M46.5,18.4c0,0,1.6.3,6-2.8s.1,0,.1,0-.2,1-.6,1.2c-.4.3-4.3,2.7-5.5,1.6Z" fill="#3b1c07"/><path d="M51.8,18.5c0,0,.7.7,3.8-2.1c0,0,.6-.1.2.6-.5.7-3,2.6-4.4,2.5c0,0-.8.3.4-1Z" fill="#3b1c07"/></g><g><path d="M58.6,24.4c0,0,.3-.4.6-1.3c0,0,.8-.5,1.1.1c0,0,.9.9-.2,2.8c0,0-.9.9-1.7.6c0,0-.2,0-.2.3s-1.1,2.2-3.8,3.1-3.2,0-3.2,0-2.1-.7-3.3-2.4c0,0-.2-.3-.3-1.1c0,0-.9.1-1.1-.3c0,0-1.7-1.9-.3-3.1c0,0,.3-.6,1,1.1c0,0-.2-2.2-.2-2.4s-.1-.9-.1-1.3-.1-.9.1-1.3.2-.6.4-.9-.5-.2.3-.4s1-.3,1-.3.4.1,1.4-.3c.9-.4,1.2-.6,1.2-.6h.6c0,0-.2.1.4,0s.4,0,1,0s.3-.1.6,0c.2.1.8.2.8.2l.3.1c.6-.3.9-.4.9-.4l.3-.5c0,0,.9-.1,1.1,0s.2.1.2.1s0,0,.1.2.2.3.2.4s0,.1.2.5.4.9.4.9s0,.1,0,.2.2.6.2.6v.2l.2.7v.1.2c.2.6.2.6.2.6s0,.2.1.4c0,.2.2,1.1.2,1.1l-.4.3.1.2v.1.3.4.4l-.4.4Z" fill="#fdbd7b"/><g><path d="M51.8,24.9c0,0-1.3,1.1.2,1.5c1.5.3.9-.5.9-.5s-1.7.3-1.1-.7c.1-.1.5-.4,0-.3Z" fill="#ea7b2c"/></g><path d="M58.6,24.8c0,0,.4-.6.7-1.1.3-.6,1-.3,1-.3s.7,1.3-.3,2.5-1.7.5-1.7.5.2-1.2.1-1.6h.2Z" fill="#f89a4e"/><path d="M46.9,24.4c0,0-.4-1-.6-1.1s-1,.5-.5,1.9c0,0,1,1.6,1.6,1.2c0,0-.3-1.4-.2-1.7l-.3-.3Z" fill="#d5712e"/></g></g></g><g id="eJeuSM7HzRG48" opacity="0"><path d="M46.9,34.8c0,0-.2.2-.2-.3c0,0-.1-1.3-.2-1.4c0,0-.2-.1-.2-.1s.4-.6-.2-1.1c0,0,0,1.5-2,.5c0,0-.3,0-.1.8c0,0-1,1.3.4,3.8c0,0,.6.8,1.3.6c0,0,2-1.9,1.2-2.8Z" fill="#498526"/><g><path d="M46.1,32c0,0-.1-.2.1-.2.2-.1.7-1,.6-1.9l.7-1.3c0,0,.2-.8-1-.4c0,0-.4.1-.6,1.1c0,0-1-.7-1.5-.5c0,0-.4.3-.3.5c0,0-.1.2-.2.1s-.5.5-.3.6c0,0,0,.2-.1.2c0,0-.4.3-.2.5s-.1.2-.1.2-.3.2-.1.8c0,0,.6.6,1,.6c0,0,0,.2-.1.3c0,0,1.8.7,2.1-.6Z" fill="#f4b271"/><path d="M46.1,29.6c0,0,0,.8-.4.7c0,0-.8-.5-.9-.7c0,0-.1.2.2.4s.7.5.7.5-.1.7-.3.5-1.1-.6-1.1-.6-.3.2,0,.3.9.5.9.5-.1.4-.3.4-1-.5-1-.5s0,0,0,.1c.1.1.8.6.8.6s-.3.5-.4.4c0,0-.9-.4-1-.7c0,0,.2-.7,1.3-2.4.1-.2,1.2,0,1.5.5Z" fill="#fec280"/></g></g><g id="eJeuSM7HzRG53"><path d="M45.3,33.3c0,0-.1.4-.4-.2c0,0-1-1.4-1.1-1.4c0,0-.3-.1-.4,0c0,0,.1-1-.9-1.1c0,0,.9,1.7-1.9,1.8c0,0-.3.2.4,1c0,0-.3,2.1,2.8,4c0,0,1.2.5,1.9-.2c0-.1,1.1-3.4-.4-3.9Z" fill="#498526"/><g><path d="M42.7,30.6c0,0-.2-.1,0-.3s.1-1.6-.4-2.5v-1.9c0,0-.3-1-1.3.2c0,0-.3.4,0,1.6c0,0-1.6-.2-2.1.4c0,0-.2.5,0,.7c0,0,0,.3-.2.2s-.2.8,0,.9c0,0,.1.2-.1.3c0,0-.2.6.1.7s.1.3.1.3-.2.5.4.9c0,0,1,.3,1.5.1c0,0,.1.2.1.3-.1.1,2.4-.2,1.9-1.9Z" fill="#f4b271"/><path d="M41.1,28c0,0,.4.9,0,1c0,0-1.2-.1-1.5-.2c0,0,0,.2.5.3s1.1.1,1.1.1.2.8,0,.7-1.6,0-1.6,0-.2.3.2.3s1.3,0,1.3,0s.1.5-.1.6-1.5.1-1.5.1s0,0,.1.1s1.2.2,1.2.2s0,.7-.3.7c0,0-1.3.1-1.5-.2c0,0-.3-.9,0-3.5.1-.1,1.5-.6,2.1-.2Z" fill="#fec280"/></g></g><g><g><path d="M48,31.6c0,0-2.6,1.5-2.9,2s-.9,4.4.4,3.9s2.4-1.3,2.4-1.3-1,6.4-.4,6.4l.1.4c0,0-.3.8,0,1.1c0,0,6,1.3,9.6-.2v-1c0,0-.1-.3.2-.4c0,0,.1.7.3.7.3,0-.1,1.2.4,1.1c0,0,.7-.3,2.4-.4c0,0,.1-.7,0-1c0,0-.2-.4.1-.4c0,0-1.1-9.8-3.7-10.8c0,0,.3-.3-.4-1.4c0,0,.4-.4-.8-1.1c0,0-1.5.8-1.9.9v.9l.2.1v.2c0,0-1.1.9-1.4,1.7c0,0-.3.2-.3-.1c0,0-1.1-1.6-1.6-2c0,0,.2,0,.2-.1s0-.6,0-.7-2-1.3-2.6-.2c0,0,0,.5,0,.6.2-.1-.6.3-.3,1.1Z" fill="#498722"/><path d="M55.7,30.2c0,0,.3-.6.1-.8c0,0-1.3.6-1.8.8c0,0-.1.8.2,1c.3.1,1.7-1,1.5-1Z" fill="#2f6911"/><path d="M51.1,30c0,0-1.8-.8-1.7-.8s-.2.5,0,.8c.2.2,1.5.8,1.5.8s.2.1.2-.8Z" fill="#2f6911"/><path d="M57.1,31.8c0,0,1-.7-4.2,1.4c0,0,.1-.4.3-1s2.7-1.4,2.7-3c0,0,.9.4.8,1.1c0,.1.7.7.4,1.5Z" fill="#4b8c22"/><path d="M52.4,33.2c0,0,0-.8-1.6-2.2c0,0-2-.7-1.5-1.7c0,0-1.1.1-.9,1.1c0,0-.7.6-.5,1.2c0,0,.9-.3,1.6.4.8.7,2.2.6,2.9,1.2Z" fill="#498820"/><path d="M58,32.5c0,0-1,1.4-.8,2.5.1,1.2.8,7.8,1.3,7.7c0,0,.3.5.2,1.4l-.4.1c0,0-.2.4-.4-1.1c0,0-.2.1-.3-.7c0,0-.3,0-.2.4c0,0,0,.9,0,1s-.8.3-.8.3v-.9l-.6.1c0,0,.3-.8.4-.8s.6-.1.9-.9l-.6-6.7c0,0,.3-2,.8-2.4.6-.4.5,0,.5,0Z" fill="#255814"/><path d="M56.4,42.3v-.8c0,0-.9-.9-1.2-2.5h-5.1c0,0-.7,2-1.4,2.4v1.4c0,0-1.2-.4-.7-1.9l.3-6.2c0,0-.1-.4-.4.6c0,0-1.9,1.7-2.3,1.7-.3,0,.7.2.7.2l1.7-1c0,0-1,6-.3,6.7c0,0-.2.6,0,1.1c0,0,.7.2.7,0s0-.9,0-.9s3.9.8,7.5.2c0,0,.3-.8.4-.8.3,0,.1-.2.1-.2Z" fill="#276014"/><path d="M51.7,32.9l-.1,3.6h.1v.5c0,0-.2-.1-.2,0s0,.3-.1.3-.2,0-.2,0v-.3h-.3v-.5h.2l.2-3.6c0,.1.3-.2.4,0Z" fill="#dff1d2"/><path d="M53.9,32.9l.1,3.7h.1v.4c0,0-.2-.1-.2,0s0,.3-.1.3-.2,0-.2,0v-.3h-.3v-.5h.2v-3.6c0,.1.3-.2.4,0Z" fill="#dff1d2"/><path d="M57.1,31.8c0,0-.1-.6-4.2,1.4c0,0-.3.2-.5,0s-1-.5-1.2-.5c-.3,0-1.1-.2-1.6-.7s-1.2-.6-1.6-.4c0,0,1.2.2,1.3.7c0,0,.7.6,1.8.7c1,.1,1.2.4,1.2.4s.6.1.8,0s1.9-.7,2.1-.7.7-.6,1.9-.9c0,.1.2.2,0,0Z" fill="#255814"/></g><g><path d="M58.3,44.3c0,0,.1.5-.2.5c0,0-.5.6-.3,1.5v1.2c0,0,.5.3.8-.9c0,0,0-.4.2-.4s.3,1.5,0,1.7c0,0-.6,1.1.2,1.1c0,0,.2.2.6-.4c0,0,.2.2.6-.3c0,0,.2,0,.5-.5c0,0,.1.1.4-.4c0,0,.4-1-.1-2.2c0,0-.3-1.1-.1-1.3-.1,0-1.5-.5-2.6.4Z" fill="#ef9943"/><path d="M59.1,46c0,0,.3,1.9-.2,2.1c0,0-.4.5,0,.7s.3-.3.5-.4c0,0,.5-1.3.4-1.8c0,0,.3-.1.3,0c0,.2-.1,1.5-.3,1.5c0,0,.4,0,.7-1.6c0,0,.3-.2.2.1s0,.7,0,.7.2-.2.2-.8c0,0,0-.9-.4-2.3c0,0-.9-.3-1.7.2c0,0-.4.3-.6.9c0,0,.1,1.4-.1,1.6c0,0,.4.5.5-.6c0-1,.5-.3.5-.3Z" fill="#fab76b"/></g></g><path d="M53.8,20.5c0,0,1.8-.3,2.6.6c0,0,.4-.4-.8-1.2c0,0-1.5-.3-1.8,0s0,.6,0,.6Z" fill="#1e130c"/><path d="M50.1,20.6c0,0-1.8-.3-2.6.6c0,0-.4-.4.8-1.2c0,0,1.5-.3,1.8,0s0,.6,0,.6Z" fill="#1e130c"/><path id="eJeuSM7HzRG75" d="M53.3,23.5c0,0,1.6-1.3,2.9,0c0,0,.1.4-.4.4c0,0-.5-1-2.2-.1c0,0-.3.4-.3-.3Z" fill="#101206"/><g id="eJeuSM7HzRG76"><path d="M47.7,23.6c0,0,.4-1.7,1.7-1.8.2,0,.4,0,.6.1.8.4.8,1.8.5,1.9-.3.2-.3-.7-2.8-.2Z"/><path d="M49.8,22.1c0,0-1,.1-1.2.9c0,0-.5.3-.6-.3c0,0,1-1.4,1.8-.6Z" fill="#6b3817"/><circle r="0.5" transform="translate(49.9 22.6)" fill="#eae4e4"/></g><g id="eJeuSM7HzRG80" transform="translate(0 -0.066614)"><path d="M56.3,23.8c0,0-.4-1.7-1.7-1.8-.2,0-.4,0-.6.1-.8.4-.8,1.8-.5,1.9.2.3.3-.7,2.8-.2Z"/><path d="M54.1,22.3c0,0,1,.1,1.2.9c0,0,.5.3.6-.3c0,.1-.9-1.4-1.8-.6Z" fill="#6b3817"/><circle r="0.5" transform="translate(54 22.9)" fill="#eae4e4"/></g><g id="eJeuSM7HzRG84"><path d="M54.8,26.8c0,0,.4.2-.1,1-.4.8-1.9,1.7-3.5.8c0,0-1-.9-.9-1.6c0-.1,3.8.4,4.5-.2Z" fill="#430d09"/><path d="M54,28.3c0,0-1.1-1-2.7.3c0,0,1.6.8,2.8-.2l-.1-.1Z" fill="#e14533"/><path d="M54.3,27c0,0-2.7.2-3.1,0c0,0,0,.4.5.5s2.2.1,2.6-.5Z" fill="#f8faf8"/></g><g id="eJeuSM7HzRG88" opacity="0"><path d="M51.2,28.4c0,0,.5-1.3.9-1.3s2-.1,1.6,1.3c0,0-.6,1.2-2.5,0Z" fill="#190001"/><path d="M51.8,28.4c0,0,1-.6,1.4,0s-.4.6-.4.6-1.2,0-1-.6Z" fill="#a42316"/><path d="M52,27.4c0,0,.6-.6,1.4.1c0,0-1-.4-1.2,0s-.2-.1-.2-.1Z" fill="#4c1c0d"/></g><path id="eJeuSM7HzRG92" d="M50.5,27.1c0,0,.1,1.3,1.8,1.3c0,0,1.2.4,1.9-.9c0,0,0-.4-.3-.3c0,0-.2,1-1.3.8c0,0-1.2.2-1.7-.8-.1,0-.3-.5-.4-.1Z" opacity="0" fill="#6a3625"/></g><g id="eJeuSM7HzRG93" transform="matrix(1.542857 0 0 1.542857 1624.357714 955.028571)"><rect id="eJeuSM7HzRG94" width="175" height="61.25" rx="28" ry="28" transform="matrix(1 0 0 1 -8.375042 -5.249997)" opacity="0.2" fill="#112346" stroke-width="0"/><path id="eJeuSM7HzRG95" d="M100.296,8.840967h1.86105v8.05706h-1.86105v-8.05706Zm.93793-1.32776c-.33752,0-.62035-.10561-.84864-.31684-.22829-.22129-.34251-.49288-.34251-.81477s.11422-.58843.34251-.79967c.22829-.22129.51112-.33193.84864-.33193s.62035.10562.84864.31685c.22829.20117.34251.45766.34251.76949c0,.33195-.11422.61358-.34251.84494-.21832.22129-.5013.33193-.84864.33193Zm17.50762,4.76743v4.61696h-1.86105v-4.37556c0-.70411-.16378-1.23218-.49133-1.58425-.32755-.3621-.7941-.54316-1.39949-.54316-.68501,0-1.2259.21123-1.62294.63369-.39705.41241-.59557,1.0109-.59557,1.7955v4.07379h-1.86105v-11.19538h1.86105v4.07379c.30776-.33195.68486-.58341,1.13162-.75441.45658-.18106.96271-.27159,1.51855-.27159c1.00259,0,1.80651.29673,2.41206.8902.60539.59346.90817,1.4736.90817,2.64042h-.00002Zm-11.14925,4.72426c-.87342,0-1.54846-.23136-2.02483-.69407-.47652-.46269-.71478-1.13663-.71478-2.02181v-3.87763h-1.3102v-1.50882h1.3102v-1.84075h1.8612v1.84075h2.12908v1.50882h-2.12908v3.83237c0,.39231.09428.69407.28283.9053.18855.20117.46156.30176.81888.30176.41684,0,.76433-.11065,1.04218-.33195l.52109,1.34285c-.21832.18106-.48634.31685-.80392.40738-.30776.09053-.63531.13579-.98265.13579v.00001Zm-13.2957-.10591l-2.05474-5.55243-2.08436,5.55243h-1.78672l-2.91819-8.05706h1.75696l2.09931,5.94472l2.18861-5.94472h1.56327l2.14403,5.97489l2.15884-5.97489h1.65271l-2.93315,8.05706h-1.78657Zm-13.58488-3.98495c0,.13076-.00982.31685-.02976.55826h-6.23841c.10923.59347.39221,1.06623.84879,1.41829.4664.34199,1.04218.51299,1.72704.51299.87342,0,1.59303-.2917,2.15884-.87511l.99761,1.16179c-.35731.43252-.80906.75943-1.35492.98072s-1.16138.33195-1.84625.33195c-.87342,0-1.64274-.17603-2.30766-.52808-.66507-.35206-1.18118-.83991-1.54846-1.46355-.35731-.63369-.53605-1.34787-.53605-2.14251c0-.78458.17375-1.48869.52109-2.11234.35731-.63371.84864-1.12657,1.47398-1.47863s1.33015-.52808,2.11427-.52808c.77415,0,1.464.17603,2.06955.52808.61537.34199,1.09189.82985,1.42926,1.46354.34749.62364.52109,1.34788.52109,2.1727l-.00001-.00002Zm-4.01989-2.65551c-.59557,0-1.1017.18106-1.5187.54318-.40687.35206-.6551.82481-.74439,1.41829h4.51122c-.07932-.58341-.32256-1.05617-.72943-1.41829-.40702-.36212-.9133-.54318-1.5187-.54318Zm-7.67538,6.63907v-1.04108c-.30776.38223-.68985.66889-1.14643.86002-.44676.19112-.94291.28668-1.48893.28668-.76433,0-1.45403-.17101-2.06955-.51301-.60539-.34199-1.08191-.82481-1.42925-1.44846-.34749-.63369-.52109-1.35793-.52109-2.17268s.17359-1.53397.52109-2.1576c.34734-.62364.82386-1.10646,1.42925-1.44846.61552-.34201,1.30522-.51301,2.06955-.51301.52607,0,1.00743.09053,1.44421.27159s.8089.45265,1.11666.81477v-4.13414h1.86105v11.19538h-1.78656Zm-.35731-2.70078c.20834-.38223.31259-.82481.31259-1.32774s-.10425-.94553-.31259-1.32776c-.2085-.38223-.49133-.67394-.84864-.87511-.35746-.21125-.75935-.31685-1.2061-.31685-.4466,0-.84864.10561-1.20595.31685-.35731.20117-.64014.49288-.84864.87511s-.31259.82481-.31259,1.32776.1041.94551.31259,1.32774.49132.67897.84864.8902c.35731.20118.75935.30176,1.20595.30176.44676,0,.84864-.10058,1.2061-.30176.35731-.21123.64014-.50796.84864-.8902ZM56.93698,8.749727c1.1712,0,2.06456.28667,2.67993.86002.62534.56329.93793,1.41829.93793,2.56499v4.72257h-1.75681v-.98072c-.22829.35206-.55584.62363-.98265.81475-.41699.18106-.92312.27159-1.5187.27159s-1.11666-.10059-1.56327-.30176c-.44671-.21125-.79411-.49791-1.04225-.86003-.23823-.37217-.35733-.78961-.35733-1.25231c0-.72424.26304-1.30262.7891-1.73514.536-.44259,1.37467-.66388,2.51626-.66388h2.05459v-.1207c0-.56329-.16876-.99581-.50628-1.29757-.32755-.30178-.81888-.45265-1.47398-.45265-.4466,0-.88837.0704-1.32501.21123-.42681.14083-.78911.33696-1.08691.58844l-.72956-1.37302c.41689-.32189.91812-.56832,1.50373-.73932s1.20595-.2565,1.8612-.2565l.00001.00001Zm-.25322,6.88017c.46655,0,.8784-.10562,1.23587-.31685.36714-.22129.62519-.53312.77415-.93545v-.93547h-1.92073c-1.07194,0-1.60784.35709-1.60784,1.07126c0,.34199.13386.61357.40188.81475s.6403.30176,1.11666.30176h.00001Zm-10.69116.06065h-.86354l-3.42441-5.7033v6.91036h-1.8462v-10.56169h1.59309l4.13907,7.00089l4.06463-7.00089h1.59309l.01488,10.56169h-1.8313l-.0149-7.00089-3.42441,5.79383ZM109.33381,29.33985v15.15h-3.372v-1.962c-.57764.71189-1.32435,1.2678-2.172,1.617-.90563.36793-1.87555.55151-2.853.54-1.37977.02378-2.74245-.30785-3.957-.963-1.13745-.62625-2.07375-1.56255-2.7-2.7-1.30391-2.56373-1.30391-5.59627,0-8.16.6281-1.13606,1.56394-2.0719,2.7-2.7c1.21546-.65275,2.57751-.98423,3.957-.963.92501-.00857,1.84259.16578,2.7.513.8172.33509,1.54983.84741,2.145,1.5v-.762c0-.28643.11378-.56114.31633-.76367s.47724-.31633.76367-.31633l2.472-.03Zm-4.767,11.01c1.70241-1.9736,1.70241-4.8964,0-6.87-1.79985-1.74394-4.65915-1.74394-6.459,0-1.68467,1.98016-1.68467,4.88984,0,6.87.84101.87157,2.01145,1.34672,3.222,1.308c1.21374.03854,2.38799-.43377,3.237-1.302v-.006Zm17.94,3.324c-.4506.35546-.96927.61479-1.524.762-.61408.17233-1.2492.25816-1.887.255-1.41013.09088-2.79902-.37927-3.864-1.308-.9622-1.0234-1.45181-2.403-1.35-3.804v-13.59h2.469c.28643,0,.56114.11378.76367.31633s.31633.47724.31633.76367v2.379h4.047v2.853h-4.047v7.2c-.04376.61441.15433,1.2216.552,1.692.40613.41048.96838.62774,1.545.597.22613.00135.45196-.01672.675-.054.80958-.16952,1.6251.26156,1.941,1.026l.363.912Zm5.079.027c-1.20043-.63362-2.19844-1.59212-2.88-2.766-1.3796-2.49392-1.3796-5.52208,0-8.016.68541-1.16705,1.68279-2.11975,2.88-2.751c2.61457-1.32565,5.70443-1.32565,8.319,0c1.19702.63151,2.19433,1.58416,2.88,2.751c1.3796,2.49392,1.3796,5.52208,0,8.016-.68182,1.17368-1.67976,2.13211-2.88,2.766-2.61457,1.32565-5.70443,1.32565-8.319,0Zm7.392-3.369c1.70241-1.9736,1.70241-4.8964,0-6.87-1.79985-1.74394-4.65915-1.74394-6.459,0-1.68467,1.98016-1.68467,4.88984,0,6.87.84101.87157,2.01145,1.34672,3.222,1.308c1.21059.04404,2.38438-.42048,3.237-1.281v-.027Zm17.022-11.16v3.372c-.27077-.05406-.54592-.08318-.822-.087-1.19439-.06706-2.36247.36798-3.222,1.2-.83467.95959-1.25439,2.2112-1.167,3.48v7.353h-3.552v-15.15h2.298c.28643,0,.56113.11379.76367.31633s.31633.47724.31633.76367v1.134c1.014-1.588,2.809-2.382,5.385-2.382Zm-107.022,15.042c-.99952-.24447-1.95011-.65737-2.811-1.221l.621-1.233c.3744-.7399,1.2508-1.07278,2.022-.768.37389.15524.75654.28847,1.146.399.91807.26884,1.86939.4072,2.826.411c2.118,0,3.179-.557,3.183-1.671.01432-.51063-.31898-.96614-.81-1.107-.84397-.28199-1.7129-.4829-2.595-.6-1.03337-.14877-2.05419-.3744-3.054-.675-.77526-.24876-1.47221-.69547-2.022-1.296-.61143-.71083-.9214-1.63215-.864-2.568-.02956-1.38298.6493-2.68527,1.8-3.453c1.44674-.93234,3.1502-1.38576,4.869-1.296c1.05397.00022,2.10457.11896,3.132.354.90209.18897,1.76874.51902,2.568.978l-.675,1.296c-.363.73034-1.21602,1.07232-1.983.795-.9848-.3605-2.02631-.54137-3.075-.534-.81824-.04818-1.63519.11397-2.373.471-.48302.22293-.79719.70118-.81,1.233-.01041.54748.34149,1.03623.864,1.2.87464.31646,1.77934.54264,2.7.675c1.00825.15143,2.00395.37704,2.979.675.77042.2345,1.46702.66444,2.022,1.248.59601.69214.89656,1.59055.837,2.502.02092,1.37985-.67962,2.67062-1.848,3.405-1.50499.92728-3.25673,1.37412-5.022,1.281-1.22607-.00259-2.44614-.17112-3.627-.501Zm44.883-14.874v12.858c0,5.336-2.724,8.004-8.172,8.004-1.40084.00811-2.79608-.17765-4.146-.552-1.17835-.30549-2.28055-.85199-3.237-1.605l1.026-1.713c.30567-.49262.95204-.6455,1.446-.342.51805.29338,1.06493.53264,1.632.714.99571.32459,2.03673.48864,3.084.486c1.664,0,2.884-.378,3.66-1.134.84612-.94702,1.26781-2.19906,1.167-3.465v-.795c-.61114.66419-1.36796,1.17763-2.211,1.5-.91436.34924-1.88627.52327-2.865.513-1.35633.0185-2.69615-.29893-3.9-.924-1.14224-.59206-2.09694-1.49066-2.757-2.595-.68212-1.15978-1.02996-2.48573-1.005-3.831-.02691-1.34077.32116-2.66242,1.005-3.816.65985-1.09557,1.61266-1.98501,2.751-2.568c1.20751-.61258,2.54617-.9215,3.9-.9c1.02537-.01399,2.04386.16934,3,.54.88145.34534,1.65934.91145,2.259,1.644v-.936c0-.28643.11379-.56114.31633-.76367s.47724-.31633.76367-.31633l2.283-.003Zm-4.782,10.263c.86632-.80774,1.34014-1.95125,1.299-3.135.03647-1.17094-.43625-2.30022-1.296-3.096-1.9293-1.58787-4.7127-1.58787-6.642,0-.85642.7974-1.32577,1.92647-1.287,3.096-.04421,1.18189.4251,2.3251,1.287,3.135c1.92186,1.60535,4.71714,1.60535,6.639,0Zm-12.057-10.278l-5.892,13.743c-.36888.86087-1.21443,1.41985-2.151,1.422h-1.902l5.763-13.404.3-.675c.28294-.65223.92704-1.07338,1.638-1.071l2.244-.015Zm-10.785,13.263l-5.889-13.236h2.511c.71819-.00121,1.36666.42953,1.644,1.092l3.492,8.046-1.758,4.098Z" opacity="0.8" clip-rule="evenodd" fill="#fff" fill-rule="evenodd"/><g id="eJeuSM7HzRG96" transform="matrix(0.3 0 0 0.3 -18.12243 -25.905895)" opacity="0.8" mask="url(#eJeuSM7HzRG98)"><path id="eJeuSM7HzRG97" d="M129.5,243.58426c-8.76,2.18-20.08,1.79-37.33-19.63-2.35828-2.9281-4.38181-6.36293-5.93416-10.02849c3.00814.97918,6.21933,1.50849,9.55416,1.50849c17.03246,0,30.84-13.80754,30.84-30.84c0-5.42003-1.39819-10.5135-3.85355-14.93939c22.54068-3.14789,48.24701-1.18662,56.01355,6.19939c12.32,11.73-14.11,59.03-49.29,67.73Z" fill="#fff"/><mask id="eJeuSM7HzRG98" mask-type="alpha" x="-150%" y="-150%" height="400%" width="400%"><path id="eJeuSM7HzRG99" d="M78.37454,207.03926c0-31.45994,25.50332-56.96327,56.96327-56.96327s56.96327,25.50332,56.96327,56.96327-25.50332,56.96327-56.96327,56.96327-56.96327-25.50332-56.96327-56.96327Zm89.23546-4.715c-.16775-.93858-1.05962-1.56734-2-1.41h-.06c-4.15414.71597-8.30501-1.28258-10.33588-4.97651s-1.49439-8.26953,1.33588-11.39349c.33036-.3301.51598-.77798.51598-1.245s-.18561-.9149-.51598-1.245l-.11-.1c-2.70671-2.31865-5.78705-4.16144-9.11-5.45-.43613-.17299-.92328-.16468-1.35326.02308s-.76719.53944-.93674.97692v.06c-1.40364,3.98681-5.18789,6.63916-9.41438,6.59848s-7.95898-2.76539-9.28562-6.77848c-.13404-.44903-.44162-.82607-.85458-1.04757s-.8972-.26916-1.34542-.13243h-.11c-3.26392,1.21388-6.31249,2.94242-9.03,5.12-.37331.28196-.619.70095-.6828,1.16441s.05956.93325.3428,1.30559l.1.12c2.68294,3.2243,3.03751,7.79124.8844,11.39101s-6.34454,5.44763-10.4544,4.60899c-.45624-.10445-.9353-.02286-1.33126.22672s-.67619.6466-.77874,1.10328v.09c-.55386,3.43784-.55386,6.94217,0,10.38.06433.46505.31181.88512.68739,1.16681s.84815.40164,1.31261.33319h.11c4.15414-.71597,8.30501,1.28258,10.33588,4.97651s1.49439,8.26953-1.33588,11.39349c-.33036.3301-.51598.77798-.51598,1.245s.18561.9149.51598,1.245l.11.1c2.70914,2.30768,5.7893,4.14023,9.11,5.42.43613.17299.92328.16468,1.35326-.02308s.76719-.53944.93674-.97692v-.06c1.40815-3.97311,5.18194-6.61524,9.39704-6.57914s7.94308,2.7425,9.28296,6.73914c.13404.44903.44162.82607.85458,1.04757s.8972.26916,1.34542.13243h.11c3.30375-1.22537,6.38706-2.97809,9.13-5.19.37164-.28659.61343-.70974.67164-1.17542s-.07198-.93533-.36164-1.30458l-.1-.12c-2.83001-3.19588-3.28744-7.84789-1.13412-11.53378s6.43037-5.57199,10.60412-4.67622c.93041.23341,1.87421-.33019,2.11-1.26v-.09c.5347-3.37898.5347-6.82102,0-10.2Zm-41.67,4.69c0-5.197,4.213-9.41,9.41-9.41s9.41,4.213,9.41,9.41-4.213,9.41-9.41,9.41-9.41-4.213-9.41-9.41Z" fill="#fff" stroke-width="0"/></mask></g><path id="eJeuSM7HzRG100" d="M116.33,114.77l-3.64-2.18c-1.023263-.593162-1.652267-1.687247-1.65-2.87v-2c-.002267-1.182753.626737-2.276838,1.65-2.87l3.64-2.18c.762973-.435835,1.321342-1.157154,1.552062-2.005003s.114855-1.752643-.322062-2.514997v0l-1.74-3c-.935215-1.566004-2.961067-2.080293-4.53-1.15v0l-3.68,2.18c-1.024118.591275-2.285882.591275-3.31,0l-1.7-1c-1.023263-.593162-1.652267-1.687247-1.65-2.87v-4.38c0-.877867-.348731-1.719778-.969477-2.340523s-1.462656-.969477-2.340523-.969477h-3.47c-.877867,0-1.719778.348731-2.340523.969477s-.969477,1.462656-.969477,2.340523s0,.06,0,.09v4.35c.002267,1.182753-.626737,2.276838-1.65,2.87l-1.68,1c-1.024118.591275-2.285882.591275-3.31,0L80.56,94c-.767143-.448916-1.682599-.570435-2.540292-.337203s-1.585543.801616-2.019708,1.577203v0l-1.74,3c-.443418.7584-.567152,1.661967-.343945,2.511654s.775044,1.575787,1.533945,2.018346v0L79.1,105c1.023263.593162,1.652267,1.687247,1.65,2.87v2c.002267,1.182753-.626737,2.276838-1.65,2.87l-3.61,2.18c-1.578036.917936-2.114924,2.940216-1.2,4.52v0l1.74,3c.917936,1.578036,2.940216,2.114924,4.52,1.2v0l3.66-2.18c1.024118-.591275,2.285882-.591275,3.31,0l1.68,1c1.023263.593162,1.652267,1.687247,1.65,2.87v3.67c0,.877867.348731,1.719778.969477,2.340523s1.462656.969477,2.340523.969477h3.46c.877867,0,1.719778-.348731,2.340523-.969477s.969477-1.462656.969477-2.340523v0-3.77c-.002267-1.182753.626737-2.276838,1.65-2.87l1.7-1c1.024118-.591275,2.285882-.591275,3.31,0l3.66,2.18c1.5824.913239,3.605483.371662,4.52-1.21v0l1.74-3c.938839-1.568495.428452-3.601089-1.14-4.54Zm-20.49.91c-3.865993,0-7-3.134007-7-7s3.134007-7,7-7s7,3.134007,7,7v0c0,3.865993-3.134007,7-7,7v0Z" transform="matrix(0.3 0 0 0.3 -17.650844 -2.6395)" opacity="0.8" fill="#fff"/></g>
<script><![CDATA[
(function(s,i,u,o,c,w,d,t,n,x,e,p,a,b){w[o]=w[o]||{};w[o][s]=w[o][s]||[];w[o][s].push(i);e=d.createElementNS(n,t);e.async=true;e.setAttributeNS(x,'href',[u,s,'.','j','s','?','v','=',c].join(''));e.setAttributeNS(null,'src',[u,s,'.','j','s','?','v','=',c].join(''));p=d.getElementsByTagName(t)[0];p.parentNode.insertBefore(e,p);})('5c7f360c',{"root":"eJeuSM7HzRG1","version":"2025-04-07","animations":[{"elements":{"eJeuSM7HzRG48":{"opacity":[{"t":500,"v":0},{"t":550,"v":1},{"t":750,"v":1},{"t":800,"v":0},{"t":1000,"v":0},{"t":1050,"v":1},{"t":1300,"v":1},{"t":1360,"v":0}]},"eJeuSM7HzRG53":{"opacity":[{"t":0,"v":1},{"t":500,"v":1},{"t":550,"v":0},{"t":750,"v":0},{"t":800,"v":1},{"t":1000,"v":1},{"t":1050,"v":0},{"t":1300,"v":0},{"t":1360,"v":1}]},"eJeuSM7HzRG75":{"opacity":[{"t":1440,"v":1},{"t":1500,"v":0}]},"eJeuSM7HzRG76":{"transform":{"data":{"o":{"x":49.18539,"y":23.8,"type":"corner"},"t":{"x":-49.18539,"y":-23.8}},"keys":{"s":[{"t":2000,"v":{"x":1,"y":1}},{"t":2050,"v":{"x":1,"y":-0.05501}},{"t":2070,"v":{"x":1,"y":0.002886}},{"t":2120,"v":{"x":1,"y":1.000001}}]}}},"eJeuSM7HzRG80":{"transform":{"data":{"o":{"x":54.8,"y":23.989799,"type":"corner"},"t":{"x":-54.8,"y":-24.056413}},"keys":{"s":[{"t":300,"v":{"x":1,"y":1}},{"t":350,"v":{"x":1,"y":0.002999}},{"t":1200,"v":{"x":1,"y":0.002999}},{"t":1250,"v":{"x":1,"y":1.064864}},{"t":2000,"v":{"x":1,"y":1.064864}},{"t":2050,"v":{"x":1,"y":0.008419}},{"t":2070,"v":{"x":1,"y":0.008419}},{"t":2120,"v":{"x":1,"y":1.064864}},{"t":2780,"v":{"x":1,"y":1.064864}}]}}},"eJeuSM7HzRG84":{"opacity":[{"t":170,"v":1},{"t":330,"v":1},{"t":380,"v":0},{"t":630,"v":0},{"t":680,"v":1},{"t":800,"v":1},{"t":850,"v":0},{"t":1100,"v":0},{"t":1150,"v":1},{"t":1250,"v":1},{"t":1300,"v":0},{"t":1550,"v":0},{"t":1600,"v":1},{"t":1700,"v":1},{"t":1750,"v":0},{"t":2000,"v":0},{"t":2050,"v":1},{"t":2150,"v":1},{"t":2200,"v":0},{"t":2450,"v":0},{"t":2500,"v":1}]},"eJeuSM7HzRG88":{"opacity":[{"t":500,"v":0},{"t":550,"v":1},{"t":630,"v":1},{"t":680,"v":0},{"t":950,"v":0},{"t":1000,"v":1},{"t":1100,"v":1},{"t":1150,"v":0},{"t":1400,"v":0},{"t":1450,"v":1},{"t":1550,"v":1},{"t":1600,"v":0},{"t":1850,"v":0},{"t":1900,"v":1},{"t":2000,"v":1},{"t":2050,"v":0},{"t":2300,"v":0},{"t":2350,"v":1},{"t":2450,"v":1},{"t":2500,"v":0}]},"eJeuSM7HzRG92":{"opacity":[{"t":330,"v":0},{"t":380,"v":1},{"t":500,"v":1},{"t":550,"v":0},{"t":800,"v":0},{"t":850,"v":1},{"t":950,"v":1},{"t":1000,"v":0},{"t":1250,"v":0},{"t":1300,"v":1},{"t":1400,"v":1},{"t":1450,"v":0},{"t":1700,"v":0},{"t":1750,"v":1},{"t":1850,"v":1},{"t":1900,"v":0},{"t":2150,"v":0},{"t":2200,"v":1},{"t":2300,"v":1},{"t":2350,"v":0}]},"eJeuSM7HzRG99":{"transform":{"data":{"o":{"x":135.33781,"y":207.03926,"type":"corner"},"t":{"x":-135.33781,"y":-207.03926}},"keys":{"r":[{"t":0,"v":720,"e":[0.415,0.08,0.115,0.955]},{"t":27027,"v":0,"e":[1,0]}]}},"fill":[{"t":0,"v":{"t":"c","v":{"r":255,"g":255,"b":255,"a":1}}},{"t":27027,"v":{"t":"c","v":{"r":210,"g":219,"b":236,"a":1}}}]},"eJeuSM7HzRG100":{"transform":{"data":{"o":{"x":11.12,"y":29.9,"type":"corner"},"s":{"x":0.3,"y":0.3},"t":{"x":-95.902813,"y":-108.465}},"keys":{"r":[{"t":0,"v":-720,"e":[0.415,0.08,0.115,0.955]},{"t":27027,"v":0,"e":[1,0]}]}}}},"s":"MJDBkMlV8MDExNEZiYmPZkfDAxMGV8MDEwYmZRhfDAxMGREfDAxMDJ8IMDEwOHwwMTA3YmJkMW2NjYzljOWM5YzViYmNZkfDAxMDJ8MDEwYmZDlZmN8MDEwZEV8MDEwWMnwwMTA4fDAxMDdiYVmQzY2FjNWJifDAxMDMJ8MDEwZGZlfDAxMGJEmYXwwMTBkU3wwMTAyHfDAxMDh8MDEwN3wwMFTBjYmJBZDNjOWM1YmEJmZnwwMTAyfDAxMDVFFfDAxMDViYmQzY2FjVNWJiZmF8MDEwNXwwMLTBkZmV8MDEwYlJ8MDLEwN2ZhfDAxMGRIZmVEiYmQzZmZmYXwwMTA1FfDAxMGNmZWM1YmJ8MMDEwY0N8MDEwOWZlT2NZlZmRiYmQzY2NjN2NWlQ2NhYzViYlRmZnwwYMTA5fDAxMGNiYmQzYC2FjOUpEYzljNWJifDGAxMTBiYmQzZjRiYmMA5ZmNkMGZmZDFjZmZlNZmRjZmZjY2VjZmZmYX2VjY2ZiZmRkMGM5Y2KJJZmRjYmZlY2NjZWNYkZDJmZWZkZmRkMGNmHY2JkMGNmYzlkMGNlYK2VmZWZhY2RmZGQwTUCRmZmQyRmZiZmNjYkREmYmQyS2QxY2RmYmM5FZmFjZmNkZmVmZGNjZQDJkMmNhYmJjNWJiZDKJMY2NiYmM1YmJkMmNDkYmJjNUFiYmQyY2VTWYmJjNWJiZDJjZkJiYFmM1YmJkMmQwYmJjNWBJiZDJkMWJiYzViYmQFyZDJiYmM1YmJjYWM5GYzliYldmNnwwMTE2"}],"options":"MPDAxMDg4MmY4MDgxNmAU3ZjgxMmY0NzJmNzkK3YzZlSko3MTJmOGE/R"},'https://cdn.svgator.com/ply/','__SVGATOR_PLAYER__','2025-04-07',window,document,'script','http://www.w3.org/2000/svg','http://www.w3.org/1999/xlink')
]]></script>
</svg>
