
<svg version="1.1" xmlns="http://www.w3.org/2000/svg" xmlns:xlink="http://www.w3.org/1999/xlink" x="0px" y="0px"
	viewBox="0 0 1100 700" width="1100" height="700"
	preserveAspectRatio="xMidYMid meet" xml:space="preserve">
<style type="text/css">
	.st0{fill:#E3E1EC;}
	.st1{fill:#C6C2C9;}
	.st2{fill:#FFFFFF;}
	.st3{fill:#E1C75A;}
	.st4{fill:#184A6B;}
	.st5{fill:#98B0B6;}
	.st6{fill:#6C8D97;}
	.st7{fill:#988790;}
	.st8{opacity:0.4;fill:#FFFFFF;}
	.st9{fill:#919094;}
	.st10{fill:#58661E;}
	.st11{fill:#84992E;}
	.st12{fill:#627222;}
	.st13{fill:#9AB336;}
	.st14{fill:#B5936E;}
	.st15{fill:#3E596B;}
	.st16{fill:#2E424F;}
	.st17{fill:#C2912A;}
	.st18{fill:#EFBE4B;}
	.st19{fill:#E2AB93;}
	.st20{fill:#E6E6E6;}
	.st21{fill:#606C98;}
	.st22{fill:#C7856D;}
	.st23{fill:#C5836D;}
	.st24{fill:#67380C;}
	.st25{fill:#805032;}
	.st26{fill:#B06C50;}
	.st27{fill:#6C3D23;}
	.st28{fill:#414966;}
	.st29{fill:#4B5476;}
	.st30{fill:#010514;}
	.st31{fill:#745345;}
	.st32{fill:#390A0A;}
	.st33{fill:#7B3636;}
	.st34{fill:#CD826F;}
	.st35{fill:#D76F6E;}
	.st36{fill:#B82828;}
	.st37{fill:#9F2323;}
	.st38{fill:#964242;}
	.st39{fill:#707966;}
	.st40{fill:#341212;}
	.st41{fill:#C2AB4E;}
	.st42{fill:#DD876C;}
	.st43{fill:#C66C4D;}
	.st44{fill:#F5AE94;}
	.st45{fill:#530E0E;}
	.st46{fill:#F4706E;}
	.st47{fill:#D44340;}
	.st48{fill:#C2BCA9;}
	.st49{fill:#E0D9C3;}
	.st50{fill:#B02E2E;}
	.st51{fill:#CF3636;}
	.st52{fill:#F8FAFB;}
</style>
<g id="background">
	<g>
		<g>
			<g>
				<rect x="0" y="0" class="st0" width="1100" height="700"/>
			</g>
			<rect x="0" y="481.1" class="st1" width="1100" height="274.1"/>
			<rect x="0" y="465.7" class="st2" width="1100" height="15.4"/>
		</g>
		<rect y="424.1" class="st3" width="500" height="76" transform="translate(170.3,-15.0) scale(1.5401)"/>
	</g>
</g>
<g id="characters" transform="translate(170.3,-15.0) scale(1.5401)">
	<g>
		<g>
			<g>
				<rect x="248.4" y="53.1" class="st2" width="147" height="184"/>
				<g>
					<g>
						<rect x="255.4" y="62.1" class="st4" width="133" height="166"/>
						<polygon class="st5" points="362.4,126.1 340.4,126.1 340.4,153.1 316.4,153.1 316.4,126.1 304.4,126.1 304.4,99.1 
							272.4,99.1 272.4,195.1 304.4,195.1 304.4,193.1 313.4,193.1 313.4,200.1 352.4,200.1 352.4,181.1 362.4,181.1 						"/>
						<polygon class="st6" points="370.9,121.8 370.9,145.5 346.2,145.5 346.2,187.1 338.2,187.1 338.2,160.4 324.4,160.4 
							324.4,187.1 323.4,187.1 323.4,169.3 303.6,169.3 303.6,153.4 283.8,153.4 283.8,117.8 255.1,117.8 255.1,227.6 387.7,227.6 
							387.7,121.8 						"/>
					</g>
					<rect x="250.4" y="131.1" class="st2" width="145" height="8"/>
				</g>
			</g>
			<rect x="230.4" y="26.1" class="st7" width="182" height="4"/>
			<g id="effects">
				<rect x="241.4" y="21.1" class="st8" width="54" height="340"/>
				<rect x="348.4" y="21.1" class="st8" width="54" height="340"/>
			</g>
		</g>
		<g>
			<g>
				<path class="st9" d="M472.3,389.4c0,2.1-12.2,3.8-27.4,3.8c-15.1,0-27.4-1.7-27.4-3.8c0-2.1,12.2-3.8,27.4-3.8
					C460.1,385.6,472.3,387.3,472.3,389.4z"/>
				<g>
					<g>
						<path class="st10" d="M446.1,257.3c3,27.4-5,50.3-3.7,50.6c1.3,0.4-11.7-21.2-14.7-48.6c-3-27.4,3.7-50.6,3.7-50.6
							S443.1,229.9,446.1,257.3z"/>
						<path class="st11" d="M460.8,271.2c-5.8,36.9-24.5,63.9-22.9,64.8c1.6,0.9-7.7-31.8-2-68.7c5.8-36.9,22.9-64.8,22.9-64.8
							S466.6,234.3,460.8,271.2z"/>
						<path class="st12" d="M471.9,297.8c-4.3,27.2-18,47.2-16.9,47.9c1.2,0.7-5.7-23.5-1.4-50.7c4.3-27.2,16.9-47.9,16.9-47.9
							S476.1,270.6,471.9,297.8z"/>
						<path class="st12" d="M437.6,289.7c7.8,36.5,0.1,68.4,1.9,68.7c1.8,0.3-18.6-26.9-26.5-63.4c-7.8-36.5-1.9-68.7-1.9-68.7
							S429.8,253.2,437.6,289.7z"/>
						<path class="st13" d="M458.8,302.2c-5,37-23.2,64.4-21.6,65.3c1.6,0.9-8.4-31.7-3.3-68.7c5-37,21.6-65.3,21.6-65.3
							S463.9,265.2,458.8,302.2z"/>
					</g>
					<path class="st14" d="M410.7,292.7c-0.4,4.4-0.6,31.4-0.6,36c0,38.3,16.9,59.8,35.3,59.8c18.4,0,31.3-21.5,31.3-59.8
						c0-4.7-0.2-31.6-0.6-36H410.7z"/>
				</g>
			</g>
			<g>
				<path class="st9" d="M90.3,389.4c0,2.1-12.2,3.8-27.4,3.8c-15.1,0-27.4-1.7-27.4-3.8c0-2.1,12.2-3.8,27.4-3.8
					C78.1,385.6,90.3,387.3,90.3,389.4z"/>
				<g>
					<g>
						<path class="st11" d="M70.4,325.7c0,0,6-100.5,48-88.5C118.4,237.2,92.9,238.7,70.4,325.7z"/>
						<path class="st11" d="M50.9,342.2c-1,4.6,0-108-34.5-102C16.4,240.2,80.9,207.2,50.9,342.2z"/>
						<path class="st10" d="M61.4,345.2c-3-7.5-21-159,7.5-162L61.4,345.2z"/>
						<path class="st13" d="M41.9,328.7c0,0,16.5-106.5,90-69C131.9,259.7,94.4,247.7,41.9,328.7z"/>
					</g>
					<path class="st14" d="M28.7,294.7c-0.4,4.4-0.6,31.4-0.6,36c0,38.3,16.9,59.8,35.3,59.8s31.3-21.5,31.3-59.8
						c0-4.7-0.2-31.6-0.6-36H28.7z"/>
				</g>
			</g>
			<g>
				<ellipse class="st9" cx="458" cy="406" rx="18" ry="3"/>
				<g>
					<path class="st10" d="M458.6,378c0,5.4-4.1,9.8-9.2,9.8c-5.1,0-9.2-4.4-9.2-9.8c0-5.4,4.1-9.8,9.2-9.8
						C454.5,368.1,458.6,372.5,458.6,378z"/>
					<path class="st10" d="M472.9,373.5c0,6.9-4,12.5-8.9,12.5c-4.9,0-8.9-5.6-8.9-12.5c0-6.9,4-12.5,8.9-12.5
						C468.9,361,472.9,366.6,472.9,373.5z"/>
					<path class="st2" d="M456.5,408c9.4,0,17-11.7,17-26.2h-33.9C439.5,396.3,447.1,408,456.5,408z"/>
				</g>
			</g>
		</g>
	</g>
	<g>
		<path class="st9" d="M414.2,402.4c0,4-73.8,7.2-164.9,7.2s-164.9-3.2-164.9-7.2c0-4,73.8-7.2,164.9-7.2S414.2,398.4,414.2,402.4z"
			/>
		<g>
			<g>
				<g>
					<g>
						<polygon class="st15" points="132.2,346.1 123.5,377.2 116.3,403.1 103,403.1 110.2,377.2 118.9,346.1 						"/>
						<polygon class="st16" points="132.2,346.1 123.5,377.1 110.2,377.1 118.9,346.1 						"/>
					</g>
					<g>
						<polygon class="st15" points="363.8,346.1 372.5,377.2 379.7,403.1 393,403.1 385.8,377.2 377.1,346.1 						"/>
						<polygon class="st16" points="363.8,346.1 372.5,377.1 385.8,377.1 377.1,346.1 						"/>
					</g>
				</g>
				<rect x="92.4" y="354.1" class="st16" width="312" height="10"/>
			</g>
			<path class="st17" d="M388.4,265.4c-5.9-2.7-12.4-3.8-18.8-4.7c-7.7-1.1-15.4-1.6-23.1-2.1c-16.3-1-33.1-2.3-48.9-6.6
				c-7.9-2.2-16-3.6-23.9-5.9c-8.1-2.3-16-5.2-23.7-8.6c-14.6-6.5-28.4-15.4-41.8-24c-13.6-8.8-27.1-18-41.1-26.2
				c-11.2-6.6-22.6-13.8-35.9-14.7c-19.7-1.4-40.9,10.6-50.5,27.7c-3,5.4-5.2,11.4-7,17.3c-3.8,12.4-5.6,25.4-5,38.4
				c0.7,14.2,4.8,28.2,12.6,40.2c12.4,19,9.3,37.5,30.8,43.2c18.8,4.9,62.7-0.6,82-0.2c15.2,0.3,30.3,0.3,45.5-0.9
				c16.3-1.3,32.8-3.3,48.9-6.4c15.8-3.1,38,12.1,53.6,8.3c14-3.5,34-2,47.1-8c9.1-4.2,7.5-33.8,11.9-43.5
				C405.9,278.2,397.5,269.5,388.4,265.4z M109.4,321.9c1.6,1,3.3,1.9,5,2.9C112.6,324,110.9,323,109.4,321.9z"/>
			<path class="st18" d="M411.4,341.7c0,8.5-6.9,15.4-15.4,15.4H92.7c-8.5,0-15.4-6.9-15.4-15.4v-0.2c0-8.5,6.9-15.4,15.4-15.4H396
				c8.5,0,15.4,6.9,15.4,15.4V341.7z"/>
			<path class="st18" d="M110.7,335.8c2.2,8.5-2.9,17.3-11.4,19.5l-2.1,0.5c-8.5,2.2-17.3-2.9-19.5-11.4l-13.7-52.5
				c-2.2-8.5,2.9-17.3,11.4-19.5l2.1-0.5c8.5-2.2,17.3,2.9,19.5,11.4L110.7,335.8z"/>
			<path class="st18" d="M380.3,335.8c-2.2,8.5,2.9,17.3,11.4,19.5l2.1,0.5c8.5,2.2,17.3-2.9,19.5-11.4l13.7-52.5
				c2.2-8.5-2.9-17.3-11.4-19.5l-2.1-0.5c-8.5-2.2-17.3,2.9-19.5,11.4L380.3,335.8z"/>
		</g>
	</g>
	<g>
		<g>
			<path class="st19" d="M149.4,203.2c0.2,3.2-2.8,6,0.1,15c3.2,9.9,9.5,40.1,22.7,64.9c1.1,2.2,1.8,4.5,2.9,6.7
				c1.3,2.4,3.3,4.4,5.7,5.8c2.4,1.4,5,1.7,7.6,2.6c2.9,1.1,5.9,2.2,9,1.9c1.5-0.1,1.4-2.2,0.1-2.5c-2.8-0.6-5.4-1.6-8-2.6
				c3.7-0.2,7.6,0.1,10.6,0.8c2.5,0.5,10,0.4,9.6,0.2c-5.5-11.3-20.9-6.5-27.1-11.9c-9.2-8-16.2-57.7-19.3-69.4
				c-1.2-4.6-2.3-10-5.3-13.9c-1.7-2.1-4.2-2.8-6.1-2.1C150.4,199.1,149.3,200.7,149.4,203.2z"/>
		</g>
		<path class="st20" d="M151,236.7l19.7-2.1c0,0-3.1-44.7-12.8-44.2C137.7,191.5,151,236.7,151,236.7z"/>
	</g>
	<g>
		<path class="st19" d="M297.1,289.1c-2.1-0.4-7.7,16.7-9.6,18.5c-1.5,1.5-3.8,3.9-5.9,4.1c-1.3,0.1-16.1-1.4-16.2-1.9
			c0,0,1.4,10.7,1.4,10.7c0,0.1,6.1-0.1,6.6-0.1c4.6-0.1,8.4,0.7,12.8,2.1c2.6,0.8,7.3,2,8.5-1.6C296.5,315,300.6,289.7,297.1,289.1
			z"/>
		<path class="st21" d="M133.9,319.9c0,0,129,6.9,143.6,2.5l1.4-15.7c0,0-149.4-27.8-148.2-8.5C132,317.6,133.6,318.6,133.9,319.9z"
			/>
	</g>
	<path class="st2" d="M162.5,182.8c5.2,22-23.3,73.2-26.2,84.8c-0.1,0.5-0.6,5.9-0.7,6.2c-1.4,2.8-25.9,0.8-25.9,0.8
		s-0.3-2.8-0.5-7.6c-0.7-20.6,1.1-77.6,40.6-94.6C149.8,172.5,156.1,182.9,162.5,182.8z"/>
	<g>
		<path class="st19" d="M238.5,198.9c-1.2,0.7-2.2,1.5-3.6,2c-1.5,0.5-3.2,0.5-4.8,0.5c-1.4,0-2.8,0-4.2-0.3c1.5,0,3,0,4.4-0.2
			c2.1-0.2,5.1-0.4,6.5-2.2c0.4-0.5,0.2-1.4-0.6-1.3c-1.2,0-2.3,0.6-3.4,0.9c-1.7,0.4-3.5,0.5-5.3,0.7c-1.5,0.2-3.1,0.1-4.6,0.2
			c-1.6-0.5-1.5-1.8-0.9-3.1c0.9-1.9,1.8-3.5,1.5-5.8c-0.2-1.6-1-3.2-2.6-3.6c-0.5-0.1-1,0.2-1,0.8c0.1,4.5-3.3,10.1-5.5,13.9
			c-1,1.7-2.1,3.9-2.6,6.1c-4.1,5.1-16.3,20.1-19.9,21.9c-1.9,1-19.6-15.1-30.2-25.5c-1-1-2-1.9-2.9-2.8c-1.7,0.8-3.2,1.9-4.6,3.1
			c-2.9,2.6-5.3,5.8-7.4,9.1c14.9,13.4,41,34.9,49.4,30l19.6-30.2c1.9-1.2,3.5-2.8,5.4-4.1c1.2-0.9,4.7-1.8,9.1-1.2
			c2.5,0.3,5.9,0.1,6.7-2.7c0-0.1,0-0.3,0-0.4c0.7-0.4,1.3-0.9,1.7-1.6c0.3-0.6,0-1.1-0.5-1.3c0.6-0.4,1.1-0.9,1.4-1.6
			C240.4,199.3,239.4,198.4,238.5,198.9z"/>
		<path class="st20" d="M151.2,222.5c5.7-5.7,11.2-11.7,16.5-17.7c-4.9-6.6-3.9-4.5-3.9-4.6c-3.7-4.6-12.2-14.3-19.1-16.5
			c-9-3-25.1,10,4.6,36.8C149.2,220.5,149.9,221.3,151.2,222.5z"/>
	</g>
	<g>
		<path class="st22" d="M148.6,175c0,0,5.4,11.9,12.2,10.4c5.1-8.6,8.3-15.7,8.3-15.7l-13.8-13.8C155.1,156.7,148.6,175,148.6,175z"
			/>
		<path class="st19" d="M152.7,126.4c-0.1,1-0.3,2-0.4,3.1c-1,7.5-0.7,11-1.8,18.4c-1.9,13.8,10.5,25.3,21.7,26.6
			c9.5,1.1,11.8-2.9,12.3-10.3c0.7-9.6,3.7-18.1,6.4-27.9c0.3-1.2,0.7-2.4,1-3.6c1.2-4.8,2.1-8.8,2-10.9c-0.5-10.1-20-13-20-13
			c-18.4-0.4-17.6,6.5-19.7,10.5C153.5,120.7,153.4,121.4,152.7,126.4z"/>
		<g transform="translate(176,159)">
			<animateTransform attributeName="transform" type="scale" dur="8s" repeatCount="indefinite"
				keyTimes="0;0.05;0.1;0.15;0.2;0.25;0.3;0.35;0.4;1" values="1,1;1,0.5;1,1;1,0.5;1,1;1,0.5;1,1;1,0.5;1,1;1,1" additive="sum"/>
			<g transform="translate(-176,-159)">
				<path class="st2" d="M168.8,155.1c0,0.2,0.9,4.1,2.5,7.6c0.1,0.3,0.2,0.5,0.3,0.7c2.2,4.7,5.7,8,9.9-0.7c0.1-0.1,0.1-0.2,0.2-0.3
					c0.7-1.5,1.5-3.4,2.2-5.7C183.9,156.8,174.2,161.5,168.8,155.1z"/>
				<path class="st23" d="M171.3,162.7c0.1,0.3,0.2,0.5,0.3,0.7c1.1,0.3,2.3,0.4,3.5,0.4c2.1,0,4.4-0.2,6.5-1.1
					c0.1-0.1,0.1-0.2,0.2-0.3c-2.4,1-5.1,1.1-7.4,0.9C173.2,163.2,172.2,163,171.3,162.7z"/>
			</g>
		</g>
		<path class="st24" d="M185.6,127.1c2.7-1.3,7.9,2.3,6.3,6.6c-0.2,0.5-0.7,0.5-0.8,0c-0.5-2.4-1.9-4-3.8-4.5
			c-0.6-0.2-1.8,0.2-2.2-0.5C184.9,128.2,185.1,127.3,185.6,127.1z"/>
		<path class="st24" d="M174.6,125.4c-2.5-2.2-9.6-0.7-9.5,4c0,0.5,0.6,0.7,0.9,0.3c1.4-2.1,3.6-3.1,5.8-2.9
			c0.8,0.1,1.9,0.8,2.6,0.2C175,126.7,175.1,125.8,174.6,125.4z"/>
		<path class="st22" d="M175.6,149.6c-0.6-3.6,0.2-9.9,0.9-12.4l0.7-1.8c-0.2-1.5,1.3-4,2.9-2.6c1.2,1.1,0.2,3.8,0.1,5.2
			c-0.2,4.2,0.1,8.7,0.4,12.9c0.6-0.4,1.3-1.2,2.3-1.1c0,1.4-1.2,5.9-3.2,5.4C177.8,154.9,171.9,148.2,175.6,149.6z"/>
		<path class="st25" d="M158.8,112.1c0-0.2-0.2-0.2-0.4-0.2c-0.9-1.1-2.8-1.1-4.1-0.5c-3.4,1.6-5.3,4.6-6.2,8.2
			c-0.9,3.4-1.2,7.7,0.2,11c0.9,2,2.1,3.5,3.6,5c2.1,2.2,2.9,4.5,4.2,7.2c0.3,0.6,1.2,0.3,1.2-0.3c0.2-2.9,1.6-5.3,2.6-8
			c0.8-2.4,1.3-4.9,1.4-7.4C161.4,121.9,159.7,117.2,158.8,112.1z"/>
		<g>
			<path class="st22" d="M156.8,139.7c0,0-5.4-12.1-10-3.3c-4.6,8.8,1.9,14.5,6.8,14.4C158.5,150.7,156.8,139.7,156.8,139.7z"/>
			<path class="st26" d="M156.4,141.4c0,0-3.8-7.7-6-5.2c-2.2,2.5-2.3,6.1-2.3,6.1s1.7-3.7,4.5-1c0,0-4.2,5.7,2.5,5
				C155,146.4,158,144.9,156.4,141.4z"/>
		</g>
		<path class="st27" d="M200.4,119.9c-3.5-2.4-2.3-6-3.8-9.6c-3.6-8.8-13.6-13.2-22.7-12.8c-8,0.4-16.4,4.1-19.2,12.2
			c-1.1,3.1-1.2,6.3-0.4,9.2c0.4,1.1,0.9,2.1,1.6,3c0,0.1,0,0.1,0,0.2c1.3,3,4.5,2.5,7.1,0.7c0.8-0.2,1.7-0.4,2.4-0.7
			c6-2,12.9-4.9,19.3-1.9c2.4,1.1,4.3,2.5,6,4.4c1.6,1.7,3.7,2.8,6,2.9c3.9,0.2,6.1-3.6,7.1-7C202.6,120.8,201.5,120.7,200.4,119.9z
			"/>
	</g>
	<g>
		<path class="st28" d="M109.6,274.6c0,0-8.1,35.4,7.1,41.8c15.3,6.4,33-13.1,18.8-42.6L109.6,274.6z"/>
		<g>
			<g>
				<path class="st19" d="M257.8,393.3c-0.6-2.1-18.4,0.4-20.9-0.5c-1.9-0.7-5.2-1.7-6.3-3.6c-0.7-1.2-5.8-15.1-5.4-15.4
					c0,0-9,5.9-9,5.9c-0.1,0.1,2.7,5.5,3,5.9c2.1,4.1,3,7.9,3.7,12.4c0.4,2.7,1.4,7.5,5.2,6.9C234.3,404.2,258.8,396.8,257.8,393.3z
					"/>
				<path class="st29" d="M182.6,320.5c2.8,10.5,37.1,71.7,37.1,71.7l14.1-5.5c0,0-24.8-87.8-42.3-88.8
					C172.2,296.8,179.8,310,182.6,320.5z"/>
			</g>
			<path class="st29" d="M185.8,294.9c-11.7-4-43.7-8.6-56.3-6c-11.7,2.4-21.5,9.9-18.4,22.5c0.7,2.8,2.3,6.2,4.3,8.3
				c3.7,3.9,9.5,4.8,15.2,5.1c7.3,0.4,14.7,0.2,22-0.2c4.1-0.2,8.3-0.5,12.4-0.9c8.3-0.8,24.4,0.2,29.5-6.4
				C206.1,302.2,192.1,297.1,185.8,294.9z"/>
		</g>
	</g>
	<g>
		<g>
			<path class="st2" d="M190.3,139.2c-0.6,3.6-2.9,6.3-5.1,5.9c-2.2-0.4-3.5-3.6-2.9-7.2c0.6-3.6,2.9-6.3,5.1-5.9
				C189.6,132.3,190.9,135.5,190.3,139.2z"/>
			<path class="st30" d="M185.2,131.8c-2.3,1-4.1,4.2-3.3,6.6c0,0.1,0.3,0.1,0.3,0c0.1-2,1.2-4,2.8-5.2c1-0.8,1.6-1.1,2.9-1
				c1.4,0.1,1.8,1.5,2.3,2.7c0.1,0.2,0.6-0.4,0.6-0.6C190.3,131.3,187.5,130.8,185.2,131.8z"/>
		</g>
		<g>
			<path class="st31" d="M185.4,138.6c-0.5,2.7,0.3,5.1,1.6,5.3c1.3,0.2,2.8-1.8,3.2-4.5c0.5-2.7-0.2-5.1-1.6-5.3
				C187.3,133.9,185.9,135.9,185.4,138.6z"/>
			<path class="st32" d="M186.3,138.8c-0.4,2.1,0.1,4,1,4.1c0.9,0.2,2-1.4,2.3-3.5c0.4-2.1-0.1-4-1-4.1
				C187.7,135.1,186.6,136.7,186.3,138.8z"/>
			<path class="st2" d="M186.4,135.1c-0.1,0.4,0.4,0.9,1.1,1c0.7,0.1,1.3-0.1,1.4-0.6c0.1-0.4-0.4-0.9-1.1-1
				C187.1,134.4,186.5,134.7,186.4,135.1z"/>
			<ellipse cx="186" cy="138" rx="4" ry="0.2" fill="#F5AE94">
				<animate attributeName="ry" dur="3.9s" repeatCount="indefinite" keyTimes="0;0.87;0.9;0.93;1" values="0.2;0.2;5;0.2;0.2"/>
			</ellipse>
		</g>
	</g>
	<g>
		<g>
			<path class="st2" d="M175.8,136.7c-0.6,3.6-3.2,6.2-5.7,5.8c-2.5-0.4-4.1-3.7-3.5-7.3c0.6-3.6,3.2-6.2,5.7-5.8
				C174.9,129.8,176.4,133.1,175.8,136.7z"/>
			<path class="st30" d="M169.6,129.2c-2.3,1-4.1,4.2-3.3,6.6c0,0.1,0.3,0.1,0.3,0c0.1-2,1.2-3.9,2.8-5.2c1-0.8,2.2-1,3.5-0.8
				c1.4,0.1,1.8,1.6,2.8,2.2c0.2,0.1,0.5,0,0.5-0.2C175.7,128.8,171.9,128.2,169.6,129.2z"/>
		</g>
		<g>
			<path class="st31" d="M170.2,136c-0.5,2.7,0.4,5.1,2,5.4c1.5,0.3,3.2-1.7,3.6-4.4c0.5-2.7-0.4-5.1-2-5.4
				C172.3,131.3,170.7,133.3,170.2,136z"/>
			<path class="st32" d="M170.8,136.2c-0.4,2.1,0.3,4,1.5,4.2c1.2,0.2,2.4-1.4,2.8-3.5c0.4-2.1-0.3-4-1.5-4.2
				C172.4,132.5,171.2,134.1,170.8,136.2z"/>
			<path class="st2" d="M170.8,132.5c-0.1,0.4,0.5,0.9,1.3,1.1c0.8,0.1,1.5-0.1,1.6-0.6c0.1-0.4-0.5-0.9-1.3-1.1
				C171.6,131.8,170.9,132.1,170.8,132.5z"/>
			<ellipse cx="171" cy="136" rx="4.2" ry="0.2" fill="#F5AE94">
				<animate attributeName="ry" dur="3.9s" repeatCount="indefinite" keyTimes="0;0.87;0.9;0.93;1" values="0.2;0.2;5;0.2;0.2"/>
			</ellipse>
		</g>
	</g>
	<path class="st2" d="M277.6,137.5c-3.6-10-13-15.6-21.8-15.2c-10,0.4-18.4,6.7-25.6,15c-4.6,5.3-7.8,11.9-12.4,17.2
		c-2.7,3.1-5.8,5.3-9.3,7c-2.7,1.3-5.4,1.7-8.2,1.9c-0.2-0.1-0.3,0-0.5,0c-0.3,0-0.7,0-1,0c-0.4,0-0.4,0.8,0,0.8c0.2,0,0.3,0,0.5,0
		c0,0.4,0.1,0.8,0.4,1c2.4,1.5,4.9,1.5,7.5,1.7c3.8,0.2,7.2,2.1,10.6,3.9c6,3.2,12.2,5.9,18.5,7.8c11.7,3.3,23.8,1.1,33.2-8.3
		C277.5,162.3,281.9,149.4,277.6,137.5z"/>
	<g>
		<path class="st2" d="M300.1,264.3c0,0,15.9-12.1,23.6-36.4c0,0,8.7,4.1,6.9,12.3c-1.8,8.2-17.4,34.1-26.3,33
			C295.5,272.1,300.1,264.3,300.1,264.3z"/>
	</g>
	<g>
		<path class="st33" d="M369.2,184.4c-0.8-3.8-4.8-19-6.8-22.4c-1.9-3.3-3.2,5.5-6.2,3.3c-6.3-4.5-14-5.6-21.7-5.1
			c-7,0.5-15,2.1-20.4,6.8c-2.1,1.8-3.5,4.1-4.3,6.7c-0.7,2.2-0.5,4.2,0,6.1c-0.1,3,1.1,6.1,1.6,9c0.7,4,0.7,8.1-0.8,11.9
			c-2,5-6,9.5-5.5,15.1c0.4,5.2,5.6,9.3,9.9,11.4c5.2,2.6,11.2,3.3,16.9,3.8c11.4,1.1,25.2-1,32.7-10.5c3.6-4.5,5.7-9.7,6.1-15.3
			C371,198.7,370.5,190.8,369.2,184.4z"/>
		<path class="st33" d="M323,163.9l-4-7.4c-19.4,11.4-3.4,39.7-3.4,39.7l0-4.5C311.8,167.5,323,163.9,323,163.9z"/>
		<path class="st34" d="M333.4,206l5,24.2c0,0,3.3,1.9,7.4-2l-2.3-24L333.4,206z"/>
		<g>
			<path class="st22" d="M358.4,187.9c0,0,9-4.6,8.7,3.1c-0.3,7.7-10.8,7.7-10.8,7.7L358.4,187.9z"/>
			<path class="st26" d="M358.2,191.5c0,0,5.2-4,5.6-1.5c0.4,2.5-0.8,5.1-0.8,5.1s0.4-3.2-2.4-2.3c0,0,0.5,5.4-3.4,2.6
				C357.2,195.4,355.9,193.3,358.2,191.5z"/>
		</g>
		<path class="st19" d="M341.2,213.8c-18.3,5-24.3-6-25.7-12.9c-0.3-1.4-0.4-2.6-0.4-3.5c0-0.6,0-1.4-0.1-2.2
			c-0.3-6.5-1.7-18.2-1.7-18.2c0.2-7.2,3.1-11.2,6.5-13.5c11.8-7.7,25.3-4.8,33.7,0.9c5.3,3.6,7.7,13.4,7.7,13.4
			S363,207.8,341.2,213.8z"/>
		<path class="st35" d="M321.1,198c0,1.6-2.2,2.9-4.9,2.9c-0.2,0-0.5,0-0.7,0c-0.3-1.4-0.4-2.6-0.4-3.5c0-0.6,0-1.4-0.1-2.2
			c0.4-0.1,0.8-0.1,1.2-0.1C318.9,195.1,321.1,196.4,321.1,198z"/>
		<g>
			<path class="st33" d="M323.2,180.4c-1-1.8-3.1-1.6-4.6-1.3c-1.9,0.4-3.8,0.7-5.3,2.5c-0.2,0.3,0,0.8,0.3,0.7
				c1.4-0.4,2.8-0.7,4.2-1c0.9-0.2,1.9-0.3,2.8-0.2c0.8,0,1.5,0.4,2.3,0.4C323.3,181.4,323.5,180.8,323.2,180.4z"/>
			<path class="st33" d="M333.1,180.4c1.4-1.8,4.5-2,6.5-1.7c2.5,0.4,4.7,1.1,6.6,2.9c0.3,0.3,0,0.8-0.4,0.7c-1.8-0.4-3.7-0.7-5.5-1
				c-1.2-0.2-2.5-0.3-3.7-0.2c-1.1,0-2,0.4-3,0.4C333,181.4,332.8,180.8,333.1,180.4z"/>
		</g>
		<path class="st22" d="M328.7,190.3c-0.2-0.1-0.4-0.1-0.5,0.1c0,0,0,0,0,0.1c-0.2,0-0.4,0-0.4,0.3c-0.3,1.8-1,3.1-2.2,4.4
			c-0.7,0.7-1.2,1.4-1.2,2.4c-0.1,1.7,2.6,2.2,3.8,2c2.3-0.3,2.3-2.5,2.5-4.3C330.8,193.4,330.6,191.2,328.7,190.3z"/>
		<g>
			<path class="st36" d="M337.9,202c-1.4,1.7-10.2,11.8-14.9,1.4c0,0,0,0,0,0s2.8-4.4,5-0.8c-0.2-0.3,1.7-1.5,1.9-1.6
				c0.8-0.3,1.6-0.2,2.3,0.1c1.2,0.4,2.8,1.7,4.2,1.6C336.9,202.7,337.4,202.5,337.9,202z"/>
			<path class="st37" d="M336.3,202.7c-9,4.7-13.2,0.8-13.3,0.7c0,0,0,0,0,0s2.8-4.4,5-0.8c-0.2-0.3,1.7-1.5,1.9-1.6
				c0.8-0.3,1.6-0.2,2.3,0.1C333.4,201.5,334.9,202.7,336.3,202.7z"/>
		</g>
		<path class="st35" d="M344.9,198c0,1.8-2.5,3.3-5.6,3.3c-3.1,0-5.6-1.5-5.6-3.3c0-1.8,2.5-3.3,5.6-3.3
			C342.4,194.8,344.9,196.2,344.9,198z"/>
		<g>
			<path class="st38" d="M365,178.1c0,0.3,0,0.5-0.1,0.8c-0.4,4.6-1.5,7.6-1.5,7.6s-10,1.2-23.8-7.7c-10.6-6.8-22.4-20.5-22.4-20.5
				c0.9-1.5,1.9-2.9,3.1-4c0.2-0.2,0.4-0.6,0.6-0.8c1.6-1.4,3.4-2.5,5.3-3.5h0c0.3,0,0.6,0,0.9-0.1c2-0.7,4.1-1.1,6.2-1.3
				c0.3,0,0.6,0,0.9,0c10.9-0.7,23.1,4.8,27.6,12.5c0.2,0.4,0.4,0.7,0.6,1.1c0.2,0.4,0.4,1.2,0.5,1.6c0.2,0.6,0.4,1.2,0.6,2.2h0
				c0.1,0,0.3,0.5,0.4,0.9C365,171.1,365.2,174.8,365,178.1z"/>
		</g>
	</g>
	<g>
		<path class="st19" d="M300.9,318.9l-7.5-2.5l-0.7,4.6c0,0-13.1,3.9-15.3,5.7c-2.1,1.8,17.4,1.4,21.6,1.1
			C303.3,327.4,300.9,318.9,300.9,318.9z"/>
		<path class="st28" d="M346.5,289.3c-0.7-1.1-42.9-53.9-50.4-44.7c-7.5,9.2-5,75.2-5,75.2l11.4,0.4l3.9-41.9
			c0,0,20.9,38.7,35.8,35.1C357.1,309.9,346.5,289.3,346.5,289.3z"/>
	</g>
	<g>
		<path class="st2" d="M357.6,296.4c0,1.1-12.5-1.1-12.5-1.1s1.9-8-1.1-19c-3-11-20.2-48.3-20.2-48.3c0.1-2.3,4.3-5.1,9.9-6
			c0.3-0.1,0.7-0.1,1-0.2c6-0.7,10.6-0.9,14.1-0.8c6.7,0.2,9.5,1.5,10.2,1.9C363.4,225.5,357.6,295.2,357.6,296.4z"/>
		<path class="st2" d="M331.8,237c-4.7,0-8.6,4.1-8.6,9.1s3.8,9.1,8.6,9.1c4.7,0,8.6-4.1,8.6-9.1S336.5,237,331.8,237z"/>
		<path class="st34" d="M348.7,221c-24.2,48.7-16.9,9.8-15.1,0.9c0.3-0.1,0.7-0.1,1-0.2C340.6,221,345.2,220.9,348.7,221z"/>
	</g>
	<g>
		<path class="st19" d="M291.7,280.3c-1.2,0.1-2.6,0.2-3.3,1.3c-0.7,1-1,2.2-0.9,3.4c0.1,0.9,0.5,2.5,1.3,3.4
			c-0.1,0.3,0,0.6,0.1,0.8c1.4,1.9,4.8,0.4,6.5-0.2c0.8-0.3,0.7-1.6-0.2-1.7c-0.2,0-0.5,0-0.9,0c0.3-0.2,0.7-0.4,1-0.6
			c1.1-0.7,2.3-1.7,2.5-3.1C298.3,280.6,293.8,280.1,291.7,280.3z"/>
	</g>
	<g>
		<path class="st29" d="M357.6,289.9c0,0,22.8,29.4-1,35.7c0,0-18.5,3.6-18.5-1c0-23.1,6.9-35.5,6.9-35.5L357.6,289.9z"/>
		<g>
			<path class="st29" d="M345.5,300.6c-8.2,3.5-43.4,23.9-41.6,38.4c1.7,14.5,60.1-13.8,59.5-27.1
				C362.8,298.5,353.8,297.1,345.5,300.6z"/>
			<path class="st19" d="M295.7,388.7l-3.5,9.9c0,0-19.5,8.5-16.3,9.6c3.2,1.1,20.6,1.1,22-3.2c-0.4,3.2,4.3-15.3,4.3-15.3
				L295.7,388.7z"/>
			<path class="st29" d="M301.4,396.8c17.7-44,14.5-58.9,17.1-55.2c0,0-5.1-14.4-11.8-11.2c-5.2,2.4-12,44.6-15.3,66L301.4,396.8z"
				/>
		</g>
	</g>
	<g>
		<path class="st19" d="M346.2,310.5c-0.6-1.1-1.2-2-2.6-1.5c-1.7,0.7-3.4,1.8-5.1,2.5c-0.3,0.1-0.6,0.3-0.9,0.4
			c-1.7,0.6-3.6,1-5.1,1.8c-2,1-4.9,2.7-5.4,4.9c-0.1,0.3,0.2,0.6,0.5,0.5c1.4-0.3,2.3-1.4,3.4-2.2c0.6-0.5,1.2-0.9,1.9-1.2
			c-2.1,2.5-3.3,5.9-4.3,8.9c-0.2,0.5,0.4,1,0.9,0.9c2.9-0.8,5.1-3.9,7.7-5.4c2.4-1.4,4.8-2.7,6.9-4.6c1-1,2.3-2.3,2.6-3.8
			C346.6,311.3,346.4,310.9,346.2,310.5z"/>
		<path class="st2" d="M358.9,222.9c0,0,19,20.8,12.6,53.8c0,0-11.7,28.4-25.9,36.5l-4.3-4.3c0,0,20.6-28.7,20.6-39.7
			c0-11-6-26.6-7.1-28.7C353.7,238.4,353,229,358.9,222.9z"/>
	</g>
	<g>
		<path class="st2" d="M331.9,187.2c0,3.3,2.7,6,6,6c3.3,0,6-2.7,6-6c0-3.3-2.7-6-6-6C334.6,181.2,331.9,183.9,331.9,187.2z"/>
		<g>
			<path class="st39" d="M339.4,186.8c0,2.7-1.7,4.9-3.7,4.9c-2.1,0-3.7-2.2-3.7-4.9c0-2.7,1.7-4.9,3.7-4.9
				C337.8,181.9,339.4,184.1,339.4,186.8z"/>
			<path class="st32" d="M337.9,186.3c0,2.2-1.2,4-2.6,4c-1.5,0-2.6-1.8-2.6-4c0-2.2,1.2-4,2.6-4
				C336.7,182.3,337.9,184.1,337.9,186.3z"/>
			<path class="st2" d="M338.5,183.5c0,0.5-0.6,1-1.4,1c-0.8,0-1.4-0.4-1.4-1c0-0.5,0.6-1,1.4-1C337.9,182.5,338.5,183,338.5,183.5z
				"/>
		</g>
		<path class="st40" d="M337.3,180c4.3-0.2,7.4,3.5,7.4,7.2c0,0.4-0.5,0.5-0.7,0.2c-1.6-2.2-4-4-6.9-4.8c-4.3-1.2-4.9,2.8-5.1,6.3
			c0,0.3-0.5,0.3-0.5,0C331.1,184.7,332.9,180.2,337.3,180z"/>
	</g>
	<g>
		<path class="st2" d="M314.6,187.2c0,3.3,2.1,6,4.7,6c2.6,0,4.7-2.7,4.7-6c0-3.3-2.1-6-4.7-6C316.7,181.2,314.6,183.9,314.6,187.2z
			"/>
		<g>
			<path class="st39" d="M320.9,186.7c0,2.8-1.4,5-3.1,5c-1.7,0-3.1-2.3-3.1-5c0-2.8,1.4-5,3.1-5
				C319.5,181.7,320.9,183.9,320.9,186.7z"/>
			<path class="st32" d="M320.1,186.4c0,2.1-1,3.9-2.3,3.9c-1.3,0-2.3-1.7-2.3-3.9c0-2.1,1-3.9,2.3-3.9
				C319,182.6,320.1,184.3,320.1,186.4z"/>
			<path class="st2" d="M319.7,182.8c0.1,0.4,0.4,0.5-0.9,0.9c-0.5,0.2-1.1-0.1-1.2-0.4c-0.1-0.4,0.3-0.8,0.9-0.9
				C319.1,182.2,319.6,182.4,319.7,182.8z"/>
		</g>
		<path class="st40" d="M319.1,180.3c3.1-0.4,5.5,3.2,5.5,6.8c0,0.4-0.4,0.5-0.5,0.2c-1.3-2.2-1.6-3.8-3.9-4.6
			c-3.4-1.2-5.4,2.6-5.5,6.1c0,0.3-0.4,0.3-0.4,0C313.9,184.7,315.7,180.8,319.1,180.3z"/>
	</g>
	<g>
		<g>
			<path class="st41" d="M211.9,447.6c0,2.9-19,5.3-42.4,5.3c-23.4,0-42.4-2.4-42.4-5.3s19-5.3,42.4-5.3
				C193,442.3,211.9,444.6,211.9,447.6z"/>
			<g>
				<path class="st17" d="M208.4,439.3c0,3.8-3,6.8-6.8,6.8h-64.4c-3.8,0-6.8-3-6.8-6.8v-0.4c0-3.8,3-6.8,6.8-6.8h64.4
					c3.8,0,6.8,3,6.8,6.8V439.3z"/>
				<g>
					<path class="st21" d="M125.9,401.1c0,0,20.9,45,41.4,39.3C181.9,436.3,116.1,368.5,125.9,401.1z"/>
					<path class="st21" d="M216.5,401.1c0,0-20.9,45-41.4,39.3C160.5,436.3,226.3,368.5,216.5,401.1z"/>
					<path class="st21" d="M187.3,429.6c0,8.8-3.2,12.4-17.6,12.2c-9.7-0.1-17.6-3.5-17.6-12.2s2.3-16.7,17.6-19.5
						C182.8,407.7,187.3,420.8,187.3,429.6z"/>
					<path class="st2" d="M151.4,378.5c2.8-4.4,25.6-6,33.3,0c2.9,2.3-1.4,33.2-3.6,36.1c-2.2,2.8-20.5,4.7-22.7-0.7
						C156.1,408.5,148.5,382.9,151.4,378.5z"/>
					<g>
						<g>
							<g>
								<path class="st42" d="M173.7,374.8c0.1,2.8-5.5,3.9-5.5,3.9c-2.8,0.1-5.6-0.8-5.6-3.6l-0.2-9.4c-0.1-2.8,2.4-5.3,5.3-5.4
									l0.3,0c2.8-0.1,5.6,2.3,5.6,5.2L173.7,374.8z"/>
							</g>
						</g>
						<g>
							<g>
								<g>
									<path class="st42" d="M148.1,343.4c0,0-7.4-3.4-6.9,2.8c0.5,6.2,9,5.9,9,5.9L148.1,343.4z"/>
									<path class="st43" d="M148.4,346.2c0,0-4.3-3.1-4.6-1c-0.3,2,0.9,4.1,0.9,4.1s-0.4-2.5,1.9-1.9c0,0-0.2,4.4,2.8,2
										C149.3,349.3,150.2,347.6,148.4,346.2z"/>
								</g>
								<g>
									<path class="st42" d="M186.4,341.7c0,0,7.1-4.1,7.1,2.2c0,6.2-8.5,6.6-8.5,6.6L186.4,341.7z"/>
									<path class="st43" d="M186.4,344.5c0,0,4-3.4,4.5-1.4c0.4,2-0.5,4.1-0.5,4.1s0.2-2.6-2-1.7c0,0,0.6,4.4-2.6,2.2
										C185.7,347.7,184.6,346.1,186.4,344.5z"/>
								</g>
							</g>
							<path class="st44" d="M186.5,332.3c0-0.1,0-0.2-0.1-0.3c-0.4-2-1.2-4.1-2.1-6c-3.9-8.4-13.3-13.7-22.4-10.9
								c-7.3,2.3-11.7,7.2-14.5,14.2c-1.3,3.3-1.3,6.6-0.8,10c0,0.2,0,0.4,0.1,0.5c0.1,0.7,0.2,1.4,0.4,2.1
								c0.8,4.5,1.8,9.1,3.1,13.5c2.5,8.3,15.5,12.5,19.2,11.6c13.9-3.2,17.1-16.7,16.9-18.1c-0.3-2.2,0-4.7,0-6.9
								c0-1.2,0.1-2.4,0.3-3.6c0.1-1.2,0.2-2.5,0.2-3.7C186.8,334,186.7,333.1,186.5,332.3z"/>
							<g>
								<path class="st45" d="M150.1,334.3c0.9-2.3,4.1-2.8,6.3-2.9c1.9-0.1,5.3,0.7,5.8,2.9c0,0.2-0.1,0.3-0.3,0.3
									c-1.9-0.8-3.3-1.6-5.4-1.6c-2.3,0-3.7,1.3-5.8,2C150.2,335.1,149.9,334.7,150.1,334.3z"/>
								<path class="st45" d="M171.2,333.4c0.9-2.3,4.1-2.8,6.3-2.9c1.9-0.1,5.3,0.7,5.8,2.9c0,0.2-0.1,0.3-0.3,0.3
									c-1.9-0.8-3.3-1.6-5.4-1.6c-2.3,0-3.7,1.3-5.8,2C171.3,334.2,171,333.7,171.2,333.4z"/>
							</g>
							<path class="st42" d="M163.7,349.4c0.1-0.3,0.1-0.3,0.8-0.2c1,0.1,1.7,0.2,2.7,0.1c0.6-0.1,1.2-0.3,1.9-0.5
								c0.3-0.1,0.8-0.3,1.1-0.1c0.4,0.3,0,1-0.2,1.3c-0.6,1-1.9,2.3-3.3,2.1C165.7,352.1,163.3,350.8,163.7,349.4z"/>
							<path class="st46" d="M172.1,349.4c0.1,1.8,2.7,3.1,5.9,3c3.2-0.1,5.7-1.7,5.6-3.5c-0.1-1.8-2.7-3.1-5.9-3
								C174.5,346,172,347.6,172.1,349.4z"/>
							<path class="st46" d="M151,350.3c0.1,1.8,2.7,3.1,5.9,3c3.2-0.1,5.7-1.7,5.6-3.5c-0.1-1.8-2.7-3.1-5.9-3
								C153.4,347,150.9,348.5,151,350.3z"/>
							<g transform="translate(167,356)">
								<animateTransform attributeName="transform" type="scale" dur="8s" repeatCount="indefinite"
									keyTimes="0;0.5625;0.6;0.65;0.7;0.75;0.8;0.85;0.9;1" values="1,1;1,1;1,0.5;1,1;1,0.5;1,1;1,0.5;1,1;1,0.5;1,1" additive="sum"/>
								<path class="st47" transform="translate(-167,-356)" d="M171,354.7c-0.1-0.4-0.7-0.5-0.9-0.1c-0.6,1.2-0.4,2.9-1.9,3.4c-2.1,0.7-4.3-1.5-4.3-3.5
									c0-0.5-0.8-0.5-0.8,0c-0.1,2.6,2.1,4.6,4.6,4.8C170,359.5,171.3,356.8,171,354.7z"/>
							</g>
							<g transform="translate(158,342)">
								<animateTransform attributeName="transform" type="scale" dur="4s" repeatCount="indefinite"
									keyTimes="0;0.88;0.91;0.94;1" values="1,1;1,1;1,0.1;1,1;1,1" additive="sum"/>
								<path class="st45" transform="translate(-158,-342)" d="M161.4,338.9c-0.1-0.2-0.4-0.2-0.5-0.1c-1.4,1.7-0.8,4.4-2.9,5.8c-1.5,1-3.6-1.1-4.3-2.2
									c-0.9-1.2-1.3-2.6-1.9-3.9c-0.2-0.3-0.6-0.1-0.6,0.2c-0.2,3.2,3,7.9,6.6,7.5C160.3,345.9,162.6,341.1,161.4,338.9z"/>
							</g>
							<g transform="translate(176,342)">
								<animateTransform attributeName="transform" type="scale" dur="4s" repeatCount="indefinite"
									keyTimes="0;0.88;0.91;0.94;1" values="1,1;1,1;1,0.1;1,1;1,1" additive="sum"/>
								<path class="st45" transform="translate(-176,-342)" d="M172.6,338.9c0.1-0.2,0.4-0.2,0.5-0.1c1.4,1.7,0.8,4.4,2.9,5.8c1.5,1,3.6-1.1,4.3-2.2
									c0.9-1.2,1.3-2.6,1.9-3.9c0.2-0.3,0.6-0.1,0.6,0.2c0.2,3.2-3.1,7.9-6.6,7.5C173.7,345.9,171.4,341.1,172.6,338.9z"/>
							</g>
							<path class="st38" d="M177.5,319c2.9-4.8-2.4-8.5-6.6-9.5c-3-0.7-6.3-0.3-9.2,0.1c-3.5,0.5-7.1,1.5-10.1,3.4
								c-5.4,3.6-9,9.8-9.4,16.2c-0.2,3.3,0.6,6.8,1.7,9.9c0.8,2.3,1.8,4.9,3.9,6.3c0.4,0.2,1-0.1,0.9-0.5
								c-0.6-4.7,2.1-9.1,5.3-12.3c2.9-2.9,7.1-3.8,10.9-5c1.4-0.5,2.8-1,4.2-1.7C172.7,325,176.6,322.5,177.5,319z"/>
							<path class="st38" d="M186.3,317.2c-2.1-2.9-5.1-4.7-8.8-5.2c-2.1-0.3-4.3,0.9-4.7,2.6c-0.1,0-0.2,0-0.3,0.2
								c-1.8,3.9,1.4,8.3,3.6,11.4c3.7,5.1,8.3,9.8,10.2,15.9c0.2,0.5,1.6-0.6,1.8-1.2C190,333,191.5,324.3,186.3,317.2z"/>
						</g>
					</g>
					<g>
						<path class="st21" d="M147.8,438.3c-4,2.2-16.6-12.2-23.7-25.2c-7-13-5.8-19.6-1.8-21.8c4-2.2,9.3,0.9,16.3,13.9
							C145.7,418.1,151.8,436.1,147.8,438.3z"/>
						<path class="st19" d="M142.1,435.2c0.3,0.6,0.6,1.3,1.1,2.2c0.3,0.5,1.1,2.3,0.3,4c-1.3,2.8-4.9,5.9-6.4,7.7
							c-2.3,2.7,10.1-1.1,13.7-5.7c1.6-2-1.9-8.2-3.4-10.7L142.1,435.2z"/>
					</g>
					<g>
						<path class="st21" d="M191.8,438.3c4,2.2,16.6-12.2,23.7-25.2c7-13,5.8-19.6,1.8-21.8c-4-2.2-9.3,0.9-16.3,13.9
							C193.9,418.1,187.8,436.1,191.8,438.3z"/>
						<path class="st19" d="M197.5,435.2c-0.3,0.6-0.6,1.3-1.1,2.2c-0.3,0.5-1.1,2.3-0.3,4c1.3,2.8,4.9,5.9,6.4,7.7
							c2.3,2.7-10.1-1.1-13.7-5.7c-1.6-2,1.9-8.2,3.4-10.7L197.5,435.2z"/>
					</g>
					<path class="st2" d="M151.4,378.5c0,0-27.5,17.5-15.1,35.4c0,0,9.7,9,14.8,9.3l3.4-4.6c0,0-20-15.4-2.4-29.7
						C152.1,388.9,155.1,383.3,151.4,378.5z"/>
					<path class="st2" d="M184.8,378.5c0,0,27.5,17.4,15.1,35.1c0,0-9.7,8.9-14.8,9.2l-3.4-4.6c0,0,20-15.3,2.4-29.4
						C184.1,388.8,181.1,383.2,184.8,378.5z"/>
					<g>
						<path class="st48" d="M181.6,404.5l-1-8.2c0,0-11.9,3.3-12.3,11.6c-0.4,8.4,13.5-2.4,13.5-2.4L181.6,404.5z"/>
						<path class="st48" d="M155.4,404.5l1-8.2c0,0,11.9,3.3,12.3,11.6c0.4,8.4-13.5-2.4-13.5-2.4L155.4,404.5z"/>
						<path class="st49" d="M151.4,407.1v-7.5c0,0,15.5,1.7,17.2,9.9c1.7,8.2-17.3-1-17.3-1L151.4,407.1z"/>
						<path class="st49" d="M187.4,407.1v-8.5c0,0-15.4,1.7-17.2,9.9c-1.7,8.2,17.3-0.5,17.3-0.5L187.4,407.1z"/>
						<polygon class="st50" points="166.7,406 148.5,402.7 148.5,428 166.7,431.1 						"/>
						<polygon class="st50" points="171.8,406 190,402.7 190,428 171.8,431.1 						"/>
						<rect x="165.4" y="406.1" class="st51" width="7" height="26"/>
					</g>
					<g>
						<path class="st44" d="M155.4,418c0.1-1.1-0.7-1.5-1.5-1.6c-1.1-0.1-1.9-0.3-3-0.7c-0.4-0.1-0.8-0.2-1.2-0.5
							c-0.5-0.3-0.7-0.9-1.2-1c-1.4-0.3-1.6,2-1.7,3.2c-0.1,1.5,0.4,3,1.4,4c1.1,1,2.5,1.8,3.8,2c1.2,0.1,3.1-0.3,2.9-2
							c0-0.1,0-0.2-0.1-0.4c0.5-0.2,0.9-0.4,1.3-0.7C157,419.5,156.3,418.2,155.4,418z"/>
					</g>
					<g>
						<path class="st44" d="M183.5,417.3c-0.1-1.1,0.7-1.5,1.5-1.6c1.1-0.1,1.9-0.3,3-0.7c0.4-0.1,0.8-0.2,1.2-0.5
							c0.4-0.3,0.7-0.9,1.2-1c1.4-0.3,1.6,2,1.7,3.2c0.1,1.5-0.4,3-1.4,4c-1.1,1-2.5,1.8-3.8,2c-1.2,0.1-3.1-0.3-2.9-2
							c0-0.1,0-0.2,0.1-0.4c-0.5-0.2-0.9-0.4-1.3-0.7C181.9,418.8,182.6,417.4,183.5,417.3z"/>
					</g>
				</g>
			</g>
		</g>
	</g>
</g>
<g id="dialogueLayer" transform="translate(170.3,-15.0) scale(1.5401)">
	<rect x="18" y="18" width="205" height="70" rx="14" fill="#FFFFFF" stroke="#C6C2C9" stroke-width="2"/>
	<path d="M60,88 L45,105 L80,88Z" fill="#FFFFFF" stroke="#C6C2C9" stroke-width="2"/>
	<text x="120" y="45" text-anchor="middle" font-size="15" fill="#184A6B" font-family="Tahoma,Arial" font-weight="bold" opacity="0">
		<animate attributeName="opacity" dur="8s" repeatCount="indefinite" keyTimes="0;0.02;0.06;0.42;0.46;1" values="0;0;1;1;0;0"/>
		كيف حالك اليوم؟
	</text>
	<text x="120" y="65" text-anchor="middle" font-size="15" fill="#184A6B" font-family="Tahoma,Arial" font-weight="bold" opacity="0">
		<animate attributeName="opacity" dur="8s" repeatCount="indefinite" keyTimes="0;0.02;0.06;0.42;0.46;1" values="0;0;1;1;0;0"/>
		هل أنجزتَ واجبك؟
	</text>

	<rect x="277" y="220" width="205" height="70" rx="14" fill="#FFFFFF" stroke="#C6C2C9" stroke-width="2"/>
	<path d="M320,220 L335,203 L300,220Z" fill="#FFFFFF" stroke="#C6C2C9" stroke-width="2"/>
	<text x="380" y="247" text-anchor="middle" font-size="15" fill="#7B3636" font-family="Tahoma,Arial" font-weight="bold" opacity="0">
		<animate attributeName="opacity" dur="8s" repeatCount="indefinite" keyTimes="0;0.56;0.6;0.96;1" values="0;0;1;1;0"/>
		أنا بخير، شكرًا لك
	</text>
	<text x="380" y="267" text-anchor="middle" font-size="15" fill="#7B3636" font-family="Tahoma,Arial" font-weight="bold" opacity="0">
		<animate attributeName="opacity" dur="8s" repeatCount="indefinite" keyTimes="0;0.56;0.6;0.96;1" values="0;0;1;1;0"/>
		نعم، أنجزت واجبي كاملًا
	</text>
</g>
</svg>
